<svg width="1920" height="1080" viewBox="0 0 1920 1080" fill="none" xmlns="http://www.w3.org/2000/svg">
<g clip-path="url(#clip0_2440_3713)">
<path d="M-50.3604 1138.17L1987.64 1138.17L1987.64 -38.1582L-50.3604 -38.1582L-50.3604 1138.17Z" fill="url(#paint0_linear_2440_3713)"/>
<g opacity="0.2">
<path d="M1821.22 172.799C1819.62 167.389 1817.81 162.849 1813.62 158.929C1811.38 156.829 1808.34 153.509 1806.09 151.749C1804.92 150.839 1803.41 150.419 1802.18 149.589C1799.05 150.299 1796.14 152.049 1792.82 151.749C1793.23 150.979 1793.91 150.419 1794.51 149.809C1794.54 149.679 1794.35 149.709 1794.26 149.729C1793.12 150.019 1789.98 151.299 1789.04 151.949C1786.93 153.399 1784.49 159.999 1782.91 162.559C1780.79 166.009 1775.88 170.419 1771.57 168.349C1768.16 166.719 1770.73 165.109 1771.72 162.859C1774.01 157.619 1771.01 155.389 1771.34 150.479C1771.4 149.589 1771.69 148.409 1771.97 147.559C1772.28 146.639 1772.88 145.899 1773.03 144.989C1772.95 144.909 1771.69 145.269 1771.46 145.359C1769.23 146.279 1766.96 151.129 1766.07 153.319C1765.38 155.009 1764.87 156.759 1764.32 158.499C1764.08 158.979 1762.77 158.959 1762.38 158.759C1762.01 158.579 1761.06 155.019 1760.77 154.279C1759.84 151.879 1757.4 146.359 1754.99 145.349C1754.55 145.169 1753.98 145.069 1753.51 144.969C1753.11 144.989 1754.04 146.419 1754.1 146.579C1756.68 152.749 1752.65 157.429 1755.37 163.899C1756.12 165.689 1757.9 166.679 1755.23 168.159C1752.97 169.419 1750.73 168.779 1748.58 167.649C1747.62 167.149 1744.38 165.089 1743.71 164.409C1742.46 163.129 1739.79 156.749 1738.86 154.729C1738.23 153.359 1738.62 152.749 1737.08 151.769C1736.07 151.129 1733.37 150.009 1732.21 149.709C1732.12 149.689 1731.94 149.659 1731.96 149.789C1732.56 150.409 1733.24 150.959 1733.65 151.729C1730.34 152.029 1727.42 150.289 1724.29 149.569C1723.06 150.399 1721.55 150.819 1720.38 151.729C1718.2 153.429 1715.18 156.699 1713.02 158.739C1708.74 162.779 1706.79 167.329 1705.24 172.939L1708.07 171.709C1709.69 171.519 1710.84 171.629 1712.16 172.609C1716.75 176.059 1716.04 182.949 1716.23 188.059C1719.96 184.859 1723.01 187.459 1725.7 190.339C1727.09 191.819 1728.23 193.549 1729.67 194.989C1730.84 193.059 1732.07 191.129 1733.9 189.759C1734.48 189.319 1736.09 188.239 1736.76 188.229C1737.23 188.229 1739.09 188.619 1739.59 188.789C1741.88 189.539 1746.46 194.029 1748.18 195.919C1749.02 196.839 1750.7 198.639 1750.87 199.829C1751.14 201.799 1761.05 218.859 1762.21 221.959C1762.53 222.809 1762.69 223.929 1763.04 224.679C1763.13 224.879 1762.96 224.989 1763.39 224.919C1764.72 220.009 1775.31 201.799 1775.58 199.829C1775.74 198.639 1777.43 196.849 1778.27 195.919C1779.99 194.019 1784.57 189.539 1786.86 188.789C1787.36 188.619 1789.22 188.219 1789.69 188.229C1790.74 188.249 1793.33 190.309 1794.08 191.109C1795.18 192.259 1795.92 193.679 1796.78 194.999C1800.25 191.529 1804.51 183.319 1810.22 188.069C1810.43 182.939 1809.69 176.079 1814.29 172.619C1815.92 171.389 1817.93 171.349 1819.75 172.199C1819.99 172.309 1821.35 173.419 1821.2 172.779L1821.22 172.799ZM1759.56 167.689C1757.8 167.309 1757.66 166.319 1757.57 164.289C1757.57 164.289 1757.38 163.939 1758.08 163.569C1758.77 163.189 1760.49 163.569 1760.98 166.959C1760.98 166.959 1761.33 168.069 1759.57 167.689H1759.56ZM1768.88 164.289C1768.79 166.319 1768.65 167.309 1766.89 167.689C1765.13 168.069 1765.48 166.959 1765.48 166.959C1765.97 163.579 1767.68 163.189 1768.38 163.569C1769.07 163.949 1768.89 164.289 1768.89 164.289H1768.88Z" fill="#190D1C"/>
<path d="M1639.43 93.3461C1638.3 89.5161 1637.01 86.2961 1634.05 83.5161C1632.46 82.0261 1630.31 79.6761 1628.72 78.4261C1627.89 77.7761 1626.82 77.4761 1625.95 76.8961C1623.73 77.4061 1621.67 78.6361 1619.32 78.4261C1619.61 77.8761 1620.09 77.4861 1620.52 77.0461C1620.54 76.9561 1620.41 76.9761 1620.34 76.9861C1619.54 77.1961 1617.31 78.1061 1616.64 78.5561C1615.15 79.5861 1613.42 84.2561 1612.3 86.0761C1610.79 88.5161 1607.32 91.6461 1604.26 90.1761C1601.84 89.0161 1603.67 87.8761 1604.36 86.2861C1605.98 82.5761 1603.86 80.9961 1604.09 77.5161C1604.13 76.8861 1604.34 76.0461 1604.54 75.4461C1604.76 74.7961 1605.18 74.2761 1605.29 73.6261C1605.24 73.5661 1604.34 73.8261 1604.18 73.8861C1602.6 74.5361 1600.99 77.9761 1600.36 79.5261C1599.87 80.7261 1599.51 81.9661 1599.12 83.1961C1598.95 83.5361 1598.02 83.5161 1597.75 83.3861C1597.49 83.2561 1596.81 80.7361 1596.61 80.2161C1595.95 78.5161 1594.22 74.6061 1592.52 73.8961C1592.21 73.7661 1591.81 73.6961 1591.47 73.6261C1591.18 73.6461 1591.84 74.6561 1591.89 74.7661C1593.72 79.1361 1590.86 82.4561 1592.79 87.0361C1593.32 88.3061 1594.58 89.0061 1592.69 90.0561C1591.09 90.9461 1589.5 90.4961 1587.98 89.6961C1587.3 89.3361 1585 87.8861 1584.53 87.3961C1583.64 86.4861 1581.75 81.9761 1581.09 80.5361C1580.65 79.5661 1580.92 79.1361 1579.83 78.4461C1579.12 77.9961 1577.2 77.1961 1576.38 76.9861C1576.31 76.9661 1576.19 76.9561 1576.2 77.0461C1576.62 77.4861 1577.11 77.8761 1577.4 78.4261C1575.05 78.6361 1572.99 77.4061 1570.77 76.8961C1569.9 77.4861 1568.83 77.7861 1568 78.4261C1566.46 79.6261 1564.32 81.9461 1562.79 83.3961C1559.76 86.2561 1558.38 89.4761 1557.28 93.4561L1559.29 92.5861C1560.44 92.4461 1561.26 92.5261 1562.18 93.2261C1565.43 95.6661 1564.93 100.556 1565.07 104.176C1567.71 101.906 1569.88 103.756 1571.78 105.786C1572.76 106.836 1573.57 108.056 1574.59 109.076C1575.42 107.706 1576.29 106.346 1577.59 105.366C1578 105.056 1579.14 104.296 1579.62 104.286C1579.95 104.286 1581.27 104.566 1581.63 104.686C1583.25 105.216 1586.5 108.396 1587.71 109.736C1588.3 110.386 1589.5 111.666 1589.61 112.506C1589.8 113.906 1596.83 125.986 1597.65 128.186C1597.87 128.786 1597.99 129.586 1598.24 130.116C1598.3 130.256 1598.18 130.336 1598.49 130.286C1599.43 126.806 1606.93 113.906 1607.12 112.516C1607.23 111.676 1608.43 110.406 1609.02 109.746C1610.24 108.406 1613.48 105.226 1615.1 104.696C1615.46 104.576 1616.77 104.296 1617.11 104.296C1617.85 104.306 1619.69 105.776 1620.22 106.336C1621 107.146 1621.52 108.156 1622.13 109.086C1624.59 106.626 1627.61 100.806 1631.65 104.176C1631.8 100.546 1631.27 95.6761 1634.54 93.2261C1635.7 92.3561 1637.12 92.3261 1638.41 92.9261C1638.58 93.0061 1639.54 93.7861 1639.44 93.3361L1639.43 93.3461ZM1595.74 89.7261C1594.49 89.4561 1594.39 88.7561 1594.33 87.3161C1594.33 87.3161 1594.2 87.0661 1594.69 86.8061C1595.18 86.5361 1596.4 86.8061 1596.74 89.2061C1596.74 89.2061 1596.99 89.9861 1595.74 89.7261ZM1602.35 87.3261C1602.29 88.7661 1602.19 89.4661 1600.94 89.7361C1599.69 90.0061 1599.94 89.2161 1599.94 89.2161C1600.29 86.8161 1601.5 86.5461 1601.99 86.8161C1602.48 87.0861 1602.35 87.3261 1602.35 87.3261Z" fill="#190D1C"/>
</g>
<g opacity="0.1">
<path d="M1882.76 594.879C1878.74 594.609 1872.85 593.659 1870.76 589.899C1875.22 589.389 1880.28 590.759 1882.76 594.879Z" fill="#F4FFF4"/>
<path d="M1847.76 603.9C1847.25 605.16 1848.56 612.51 1845.28 611.89C1842.9 611.44 1844.95 607.14 1845.47 605.81C1846.05 604.31 1845.06 603.459 1847.76 603.909V603.9Z" fill="#F4FFF4"/>
<path d="M1886.75 586.885C1885.65 588.025 1879.61 581.935 1880.76 580.895C1884.23 580.295 1886.53 583.825 1886.75 586.885Z" fill="#F4FFF4"/>
<path d="M1833.77 644.878L1836.25 638.898C1839.87 640.388 1835.09 646.298 1833.77 644.878Z" fill="#F4FFF4"/>
<path d="M1907.75 694.867L1905.75 695.867C1901.44 694.047 1895.8 691.347 1891.75 689.867L1892.75 688.867C1897.39 691.107 1902.91 692.917 1907.75 694.867Z" fill="#F4FFF4"/>
<path d="M1885.76 684.875H1884.76C1879.75 681.935 1877.18 676.075 1873.76 671.875L1874.76 670.875C1877.23 674.265 1883.05 682.355 1885.76 684.875Z" fill="#F4FFF4"/>
<path d="M1928.75 571.898V568.898L1898.25 599.888C1897.76 595.778 1889.85 593.638 1887.76 595.898C1887.27 596.428 1888.08 598.418 1889.21 598.578C1891.53 598.898 1895.41 595.698 1896.56 601.658C1897.04 604.128 1887.15 619.318 1884.99 622.618C1877.97 633.328 1869.48 643.268 1862.27 653.868L1841.8 627.358C1838.55 625.598 1838.45 631.028 1838.78 632.888C1839.02 633.188 1840.79 632.048 1841.81 632.428C1844.61 633.478 1856.29 651.998 1860.31 654.928L1860.41 656.908L1829.58 700.658C1828.49 701.298 1816.28 699.358 1815.78 698.878C1815.52 698.618 1816.6 692.448 1816.84 691.608C1817.1 690.698 1818.8 690.948 1818.81 690.388C1818.84 689.088 1817.6 687.028 1816.29 688.888L1808.79 709.868C1812.84 710.558 1812.74 702.248 1814.44 701.838C1816.49 701.338 1825.95 701.938 1825.67 705.198L1803.26 742.868C1793.46 737.358 1809.45 723.418 1807.78 714.878C1806.26 715.468 1805.13 717.568 1804.36 718.948C1797.86 730.538 1785.82 760.778 1781.79 773.868L1790.28 762.858L1792.8 761.378L1780.28 783.848C1778.35 785.978 1778.44 784.428 1779.2 782.778C1780.58 779.798 1780.92 779.148 1781.79 775.868C1780.24 776.718 1778.82 777.968 1777.93 779.518C1773.3 787.638 1769.81 798.308 1765.31 806.888C1759.44 818.068 1752.47 829.148 1745.79 839.858L1746.79 841.858C1747.71 840.388 1747.29 838.248 1749.79 838.858C1750.64 836.338 1749.16 833.918 1753.79 835.858C1754.48 833.218 1753.79 831.188 1753.91 830.968C1754.07 830.708 1756.97 829.518 1758.62 827.188C1760.59 824.408 1766.03 810.428 1766.8 809.868C1768.27 808.788 1769.81 811.838 1770.42 812.728C1771.94 814.938 1777.85 825.428 1777.85 827.358C1777.85 830.618 1770.12 845.978 1767.98 849.548C1764.3 855.688 1758.47 861.188 1754.79 866.848C1754.2 867.748 1753.94 868.788 1753.79 869.848C1754.84 871.568 1755.77 873.918 1755.61 876.048C1754.95 885.028 1743.63 905.998 1738.42 913.978C1737.06 916.068 1727.16 929.538 1726.19 929.768C1719.57 931.378 1715.39 913.068 1715.99 908.558C1716.3 906.208 1727.26 887.058 1729.38 883.928C1731.29 881.108 1733.45 878.278 1735.79 875.848C1734.69 873.228 1734.87 872.948 1735.79 870.848C1737.63 866.678 1739.82 863.668 1741.79 858.848L1740.79 857.848C1726.11 885.678 1709.58 912.858 1695.19 940.728C1694.96 941.178 1688.93 949.088 1693.29 946.828C1697.37 944.718 1706.49 922.648 1708.78 921.258C1709.96 920.548 1715.6 923.978 1715.81 926.348C1715.92 927.638 1714.92 934.128 1714.67 936.198C1713.82 943.408 1712.53 951.158 1708.97 957.488C1701.1 971.438 1698.94 960.578 1687.81 957.808C1688.41 955.068 1690.24 953.518 1691.05 950.568C1691.43 949.188 1692.87 948.638 1690.32 948.828C1687.67 951.568 1686.83 955.758 1684.81 958.818C1684.99 959.238 1685.37 959.708 1685.81 959.818C1692.33 961.488 1698.98 965.688 1704.65 969.478C1703.91 982.928 1702.87 996.458 1700.14 1009.65C1699.33 1013.58 1695.16 1030.6 1693.31 1032.81C1691.92 1034.47 1684 1034.12 1681.75 1033.37C1679.37 1032.58 1678.09 1029.83 1676.81 1027.81L1675.81 1029.81C1680.9 1040.7 1686.97 1058.35 1690.11 1070C1691.75 1076.1 1693.18 1082.46 1692.81 1088.8H1694.81C1691.92 1075.97 1697.59 1077.93 1708.23 1077.74L1709.81 1088.8H1712.81L1711.81 1076.8C1722.01 1074.89 1719.62 1081.04 1719.81 1088.8H1722.81L1721.81 1075.8C1723.23 1075.93 1724.9 1075.58 1726.24 1075.78C1726.89 1075.88 1728.09 1087.11 1727.81 1088.8H1730.81L1728.81 1074.8C1730.15 1075 1732.06 1074.44 1733.19 1074.74C1734.61 1075.12 1735.38 1086.54 1735.81 1088.8H1737.81C1738.77 1086.26 1735.27 1074.34 1735.8 1073.81C1735.96 1073.65 1740.01 1072.86 1740.23 1072.92C1742.35 1073.43 1744.01 1086.11 1743.8 1088.8H1746.8C1747.29 1084.23 1739.47 1070.37 1748.19 1071.73C1749.75 1071.97 1752.52 1086.3 1752.8 1088.8H1754.8L1751.8 1070.81C1753.21 1070.97 1754.91 1070.54 1756.22 1070.75C1757.13 1070.9 1759.94 1086.58 1759.8 1088.8H1762.8L1758.78 1070.32C1758.82 1069.34 1762.92 1069.6 1763.85 1070.25C1765.17 1071.17 1767.41 1085.95 1768.79 1088.8H1770.79L1765.78 1069.32C1765.76 1068.23 1769.3 1068.29 1770.63 1070.47C1773.06 1074.46 1773.83 1084.06 1775.8 1088.8H1777.8C1777.3 1081.9 1775.01 1074.4 1771.82 1068.3C1772.88 1066.55 1776.91 1065.99 1777.9 1067.4C1780.21 1070.7 1783.18 1084.25 1783.79 1088.8H1795.79C1792.83 1084.72 1798.63 1085.06 1800.3 1082.84L1802.79 1088.8H1805.79L1803.83 1082.4C1807.9 1077.27 1809.81 1085.8 1811.79 1088.8H1814.79L1808.8 1079.29C1813.99 1075.4 1816.83 1085.26 1819.79 1088.8H1821.79C1820.8 1084.8 1815.91 1080.63 1814.9 1077.15C1814.46 1075.62 1817.05 1074.86 1817.3 1074.86C1818.1 1074.88 1825.23 1086.6 1824.79 1088.79H1830.79C1833.16 1084.51 1836.45 1082.97 1837.79 1088.79H1840.79C1839.89 1087.01 1837.2 1084.94 1838.24 1082.82C1838.99 1081.28 1849.97 1073.03 1851.46 1072.89C1853.66 1072.68 1858.16 1081.26 1857.79 1083.79C1858.66 1082.65 1859.64 1081.65 1860.79 1080.79C1858.66 1079.75 1854.44 1072.45 1855.27 1070.74C1855.92 1069.4 1867.09 1060.13 1869.86 1063.25C1870.8 1063.84 1870.63 1064.9 1870.79 1065.79C1871.92 1065.36 1873.1 1064.86 1873.79 1063.79C1866.53 1062.09 1871.71 1052.29 1874.79 1060.79C1875.22 1059.89 1874.22 1058.98 1876.79 1058.29C1871.85 1055.66 1873.16 1054.71 1873.78 1049.79L1869.39 1051.84C1866.18 1048.42 1869.81 1048.85 1869.84 1048.24C1869.98 1045.71 1865.82 1039.61 1872.78 1041.8C1872.6 1040.79 1873.08 1038.2 1872.78 1037.8C1872.6 1037.56 1867.08 1037.72 1866.79 1037.8C1866.66 1037.9 1866.54 1037.97 1866.43 1038.04C1865.79 1038.66 1865.2 1040.27 1864.13 1040.63C1860.92 1041.71 1856.13 1039.62 1852.8 1041.8C1852.47 1031.61 1859.29 1035.24 1865.79 1036.8C1866.55 1036.05 1868.26 1035.57 1868.79 1034.8L1856.79 1032.79C1857.01 1022.83 1864.71 1028.53 1869.79 1031.8C1870.02 1031.11 1869.28 1029.72 1870.3 1029.79C1872.1 1029.9 1872.94 1032.09 1874.27 1031.82C1875.46 1031.57 1875.61 1028.95 1875.79 1028.81C1873.28 1025.85 1880.58 1019.49 1880.79 1025.81C1884.29 1024.34 1886.19 1027.08 1888.34 1021.81C1888.94 1020.34 1888.49 1018.69 1888.79 1017.81C1884.11 1020.75 1884.6 1014.77 1884.79 1011.81C1886.21 1011.94 1887.87 1011.59 1889.22 1011.8C1890.48 1011.99 1889.53 1015.61 1889.8 1016.82C1894.9 1018.7 1896.17 1018.19 1896.8 1023.82L1900.3 1019.84C1904.83 1024.02 1901.5 1025.18 1898.8 1028.82C1899.32 1028.7 1899.97 1029.18 1899.8 1029.82C1900.96 1028.02 1904.91 1026.17 1907.17 1026.76C1909.11 1027.21 1907.85 1030.74 1907.8 1031.82C1907.71 1033.81 1907.91 1035.83 1907.8 1037.82L1914.79 1036.82V1039.81H1906.8C1907.1 1041.63 1911.11 1043.71 1911.8 1045.81C1917.08 1044.91 1915.42 1047.44 1915.8 1047.81C1916.07 1048.08 1917.3 1048.62 1917.8 1048.81C1917.03 1044.88 1925.42 1047.54 1928.8 1046.81V1044.81C1926.78 1044.83 1918.4 1045.22 1917.8 1043.3C1917.05 1040.93 1919.98 1042.05 1921.27 1041.8C1923.76 1041.32 1926.22 1040.59 1928.8 1040.81V1038.81C1925.5 1037.87 1919.46 1041.44 1917.27 1038.83C1916.77 1038.24 1917.01 1037.04 1916.81 1036.81C1914.33 1033.98 1912.03 1034.01 1911.81 1033.8C1909.72 1031.75 1913.29 1032.01 1913.81 1031.81C1911.94 1027.47 1918.87 1023.75 1921.81 1021.81L1920.81 1020.81C1919.62 1021.71 1910.92 1027.61 1910.3 1027.56C1909.52 1027.5 1906.69 1024.59 1906.89 1023.44C1907.26 1021.3 1919.75 1012.08 1920.8 1008.26C1923.95 1006.24 1926.17 1011.74 1928.81 1012.8V1009.8C1923.62 1006.89 1923.62 1003.71 1928.81 1000.8V997.798C1926.39 998.758 1924.9 1002.55 1922.27 1002.83C1920.55 1003.01 1915.94 1000.68 1915.93 999.308C1915.93 998.258 1926.75 984.538 1928.81 982.808V978.808C1924.21 981.278 1917.94 995.378 1914.81 997.328C1912.61 998.698 1907.28 995.848 1906.89 994.208C1906.24 991.488 1916.76 975.758 1917.88 971.878L1928.8 974.818V972.818C1918.42 970.668 1917.83 969.148 1924.29 960.838L1928.8 963.818V960.818C1924.76 958.998 1924.61 954.748 1928.8 952.818V944.818C1922.69 944.938 1916.46 944.868 1910.45 943.658C1907.29 943.018 1903.11 942.348 1906.24 937.758C1908.36 934.648 1924.44 940.768 1928.8 938.818V936.818C1925.68 937.308 1907.55 935.178 1907.07 932.368C1907.02 932.048 1907.82 928.818 1908.38 928.748L1928.79 931.818V928.818C1924.97 928.468 1911.91 928.508 1909.77 926.338C1908.68 925.238 1907.57 921.568 1910.07 922.018C1916.27 923.118 1922.38 925.068 1928.78 924.818V922.818C1924.85 922.788 1910.15 921.428 1909.73 917.288C1909.57 915.738 1910.64 914.708 1910.78 913.818C1911.33 910.198 1911.98 906.518 1911.79 902.818L1928.78 905.818V903.818C1925.84 903.418 1913.5 901.838 1912.95 899.218C1912.82 898.598 1913.75 894.828 1914.37 894.738C1917.99 894.208 1924.69 897.988 1928.78 897.808V895.808C1917.4 892.828 1912.38 894.908 1915.79 880.808L1928.78 884.808V882.808C1920.73 879.718 1912.33 882.188 1917.79 870.808L1928.78 873.808V871.808C1925.23 870.438 1917.7 869.758 1917.69 865.318C1917.67 858.248 1924.92 865.178 1928.78 864.818V862.818C1923.01 860.288 1916.58 860.708 1919.8 852.828L1928.78 854.828V852.828C1924.11 850.698 1919.47 851.678 1920.79 844.838L1928.78 845.828V843.828C1922.46 842.728 1919.33 841.958 1921.83 834.878L1928.78 835.828V833.828L1921.71 831.218C1924.01 825.768 1919.96 816.748 1928.78 821.828V818.828C1927.77 818.268 1924.25 818.138 1923.89 817.718C1923.1 816.808 1924.1 808.878 1924.79 807.368C1925.27 806.308 1927.55 808.348 1928.78 807.828V805.828C1923.96 804.728 1923.81 800.058 1925.54 796.068C1926.56 793.718 1927.18 795.078 1928.78 795.838V792.838C1924.5 792.958 1924.1 784.078 1928.78 785.838V783.838C1924.16 783.248 1926.33 779.068 1926.83 775.338C1927.08 773.478 1925.54 771.278 1928.78 771.838V769.838C1928.22 769.748 1926.91 770.008 1926.78 769.838C1926.31 769.198 1926.3 759.568 1928.78 758.828V754.828C1925.3 751.668 1926.52 744.688 1928.78 740.828V702.838C1923.81 697.548 1915.06 694.418 1907.78 694.838C1905.48 694.468 1904.82 694.798 1905.78 695.838L1906.19 698.188L1922.17 705.568C1922.64 706.238 1923.5 717.258 1923.22 717.798C1921.75 720.648 1884.97 712.058 1880.19 709.508C1879.28 709.028 1887.65 691.758 1888.89 691.038C1890.24 691.528 1891.07 691.398 1891.78 689.838C1893.89 690.208 1894.23 689.868 1892.78 688.838C1893.68 686.078 1887.68 682.708 1885.78 684.838H1884.78L1882.61 685.738C1881.66 689.058 1875.17 705.928 1873 706.868C1869.74 708.288 1834.78 702.318 1834.93 700.368L1862.62 661.858L1870.78 671.278L1873.79 671.828C1875.36 672.778 1875.68 672.328 1874.79 670.828L1875.53 668.368C1872.53 663.718 1869.69 659.458 1867 655.578C1885.26 628.728 1903.77 605.468 1924.07 580.268C1926.1 577.748 1927.48 574.798 1928.78 571.858L1928.75 571.898ZM1714.28 921.828C1713.73 920.628 1710.82 920.028 1710.69 919.198C1710.5 917.948 1713.18 910.858 1714.77 912.838L1714.28 921.828ZM1790.78 759.858C1791.08 755.148 1794.54 751.148 1796.29 746.858C1797.16 744.728 1795.73 741.708 1799.13 742.998C1806.78 745.908 1793.64 756.808 1790.78 759.858ZM1772.99 799.558C1778.08 793.758 1801.28 749.808 1805.4 748.998C1806.89 748.708 1808.66 750.478 1809.79 751.348C1824.85 762.938 1817.37 780.328 1810.94 794.528C1804.4 808.978 1795.71 820.008 1783.27 829.828C1776.25 821.928 1772.07 810.128 1772.99 799.558ZM1864.27 733.898C1866.63 734.068 1868.26 757.528 1868.76 760.858C1853.76 761.588 1838.95 757.808 1824.77 753.368L1864.27 733.898ZM1854.76 734.858L1870.75 718.878C1868.21 725.498 1862.71 734.798 1854.76 734.858ZM1870.1 793.708C1860.15 800.748 1841.48 801.598 1829.77 803.858L1827.85 791.938C1837.45 790.388 1847.29 789.338 1856.55 786.148C1862.04 784.258 1866.56 781.228 1871.76 778.868C1870.36 784.528 1875.3 790.028 1870.11 793.708H1870.1ZM1850.15 861.738C1859.53 860.408 1869.5 854.348 1876.27 847.858C1878.5 846.918 1877.97 851.278 1877.73 852.318C1876.94 855.738 1863.75 864.038 1860.14 865.728C1855.61 867.838 1850.77 869.368 1845.77 869.848L1841.76 851.848C1854.76 851.058 1866.22 843.828 1876.75 836.848C1876.42 839.988 1879.01 842.718 1876.75 845.338C1875.22 847.118 1862.93 854.348 1860.11 855.708C1855.43 857.958 1849.89 859.948 1844.76 860.858C1844.74 862.718 1849.04 861.898 1850.14 861.738H1850.15ZM1879.57 886.148C1878.16 890.838 1856.89 895.968 1851.78 896.838C1851.51 895.058 1849.93 891.458 1850.88 889.958C1851.25 889.368 1862.02 887.818 1864.51 887.098C1869.84 885.558 1874.73 883.098 1879.74 880.848C1879.68 882.558 1880.05 884.508 1879.56 886.158L1879.57 886.148ZM1880.56 904.148C1879.4 908.068 1856.77 915.778 1855.76 914.848C1855.5 914.608 1854.49 908.098 1854.75 907.848C1864.02 907.368 1872.92 903.508 1880.74 898.848C1880.7 900.568 1881.05 902.498 1880.56 904.158V904.148ZM1874.73 1010.78C1870.52 1015.8 1862.82 1004.22 1862.96 1002.31C1863.1 1000.46 1868.15 998.438 1870.1 998.788C1870.87 998.928 1870.72 1001.56 1872.76 1000.82C1873.42 995.258 1877.86 995.328 1882.75 994.818C1882.43 997.308 1882.28 1009.18 1880.24 1009.81C1875.2 1011.36 1876.94 1001.53 1872.75 1001.82C1872.88 1005.6 1874.44 1007.33 1874.72 1010.78H1874.73ZM1846.83 1051.39C1846.17 1051.85 1831.33 1053.39 1830.76 1052.82C1831.13 1050.4 1829.81 1043.57 1831.7 1042.26C1834.23 1041.22 1848.15 1042.34 1848.64 1044.4C1848.78 1044.99 1847.44 1050.97 1846.83 1051.39ZM1831.77 1065.82L1830.75 1054.81C1833.92 1055.97 1846.03 1052.86 1847.3 1054.76C1852.68 1062.77 1836.34 1063.74 1831.76 1065.82H1831.77ZM1803.77 1040.82C1812.29 1038.02 1808.5 1056.48 1805.75 1058.8C1802.14 1061.84 1804.85 1049.58 1804.86 1048.31C1804.88 1045.77 1803.48 1043.39 1803.78 1040.81L1803.77 1040.82ZM1796.77 1040.82H1801.77V1057.31C1801.77 1057.77 1798.86 1060.45 1797.77 1059.81V1043.31C1797.77 1043 1796.39 1041.9 1796.77 1040.82ZM1798.77 1038.81C1797.59 1037.65 1806.54 1019.78 1803.76 1015.82C1798.78 1022.3 1800.71 1038.72 1790.76 1038.81C1792.57 1029.91 1794.38 1020.97 1793.76 1011.82C1797.82 1011.49 1800.7 1014.2 1803.75 1015.82C1807.89 1018.01 1808.66 1015.26 1807.49 1023.06C1807.21 1024.91 1802.62 1042.59 1798.76 1038.81H1798.77ZM1739.26 963.808C1741.61 958.268 1743.24 951.828 1743.78 945.838C1744.19 945.408 1749.47 948.718 1749.64 949.008C1750.35 950.208 1746.49 964.608 1745.54 967.088C1744.51 969.768 1737.84 983.098 1735.47 982.708C1734.24 982.508 1732.01 979.438 1729.79 979.818C1732.41 973.948 1736.66 969.958 1739.27 963.818L1739.26 963.808ZM1723.49 976.618C1719.77 974.368 1723.26 973.588 1724.62 971.158C1730.27 961.028 1734.61 951.848 1734.78 939.828C1747.83 941.378 1737.98 961.008 1734.29 967.838C1732.15 971.798 1728.67 979.758 1723.48 976.618H1723.49ZM1822.91 795.498C1823.67 794.618 1824.23 792.928 1825.28 794.838C1825.51 795.258 1827.66 803.748 1827.57 804.218C1826.61 809.118 1792.92 835.188 1784.77 833.848C1784.42 831.918 1785.08 831.148 1786.2 829.788C1789.01 826.378 1801.18 818.548 1805.78 814.368C1812.49 808.268 1817.17 802.118 1822.91 795.508V795.498ZM1806.78 808.858L1820.76 775.868C1820.52 779.918 1824.37 787.378 1823.37 790.888C1822.65 793.398 1807.61 809.868 1806.78 808.858ZM1787.18 836.808C1788.05 835.598 1806.18 828.518 1808.68 825.258L1828.76 807.858C1828.98 810.688 1831.31 815.528 1830.62 818.128C1829.21 823.438 1794.92 847.938 1790.78 845.408C1789.54 844.648 1786.2 838.178 1787.18 836.818V836.808ZM1836.29 842.818C1834.12 848.078 1807.03 863.998 1801.18 863.798C1799.13 863.728 1798.5 861.428 1797.77 859.848C1806.76 857.168 1816.32 852.048 1823.69 846.258C1827.23 843.478 1829.72 840.148 1832.74 837.308C1833.72 836.388 1834.17 835.488 1835.77 835.848C1835.19 837.998 1837.04 841.038 1836.3 842.818H1836.29ZM1843.29 871.818C1841.52 876.158 1819.76 889.568 1814.79 890.468C1811.82 891.008 1811.1 888.348 1810.76 885.858L1825.08 879.668L1842.75 865.838C1842.38 867.758 1843.98 870.108 1843.29 871.818ZM1845.25 879.968C1844.29 884.678 1824.95 895.818 1819.77 897.838C1819.94 897.978 1819.43 899.738 1820.2 899.748C1827.64 899.828 1839.96 887.658 1846.26 883.828C1849.31 889.558 1840.61 894.918 1836.3 897.858C1833.58 899.708 1825.53 904.708 1822.79 905.408C1816.63 906.978 1818.67 900.808 1818.64 899.198C1818.23 899.018 1817.71 898.648 1817.08 898.098C1816.96 898.018 1816.86 897.928 1816.78 897.838C1815.56 896.428 1813.47 895.518 1813.78 892.848C1825.64 889.998 1835.57 882.418 1844.77 874.838C1844.5 876.498 1845.57 878.478 1845.26 879.968H1845.25ZM1852.76 918.838C1859.09 923.138 1849.46 929.788 1845.68 932.258C1839.41 936.358 1831.59 941.438 1831.85 929.928C1836.74 929.038 1840.57 926.178 1844.76 923.838L1842.76 922.838C1839.45 924.598 1831.23 929.678 1828.85 926.248C1825.25 921.048 1829.59 922.048 1833.03 920.608C1835.97 919.378 1839.9 917.698 1842.65 916.228C1848.27 913.208 1857.2 903.258 1850.76 917.838C1850.87 917.838 1852.64 918.758 1852.76 918.838ZM1854.76 936.828C1855.3 936.748 1857.06 935.118 1857.75 935.838C1858.61 936.728 1854.81 941.828 1853.76 942.828L1854.76 943.828C1855.23 943.458 1858.57 941.698 1858.75 941.828C1863.77 951.728 1850.45 955.788 1842.76 956.828C1842.75 956.938 1842 957.388 1841.76 957.828C1838.78 963.248 1833.16 965.518 1828.76 968.828C1827.83 969.528 1826.54 969.978 1825.76 970.828C1823.36 973.448 1813.55 990.808 1810.26 990.808L1806.78 987.328C1812.68 982.348 1816.79 976.358 1820.76 969.828L1819.76 967.828C1818.27 970.748 1806.48 985.308 1804.12 985.718C1802.68 985.968 1796.4 980.728 1795.93 979.098C1793.68 971.298 1805.45 956.378 1814.38 956.818C1815.5 956.728 1816.78 958.668 1817.76 959.828C1818.87 959.578 1818.53 958.548 1818.76 957.828C1818.94 957.278 1818.28 956.148 1819.35 955.738C1823.97 953.828 1833.08 950.778 1836.76 947.828C1837.64 947.128 1837.81 945.898 1837.76 944.828C1837.75 944.488 1837.84 944.088 1837.76 943.828C1837.6 943.298 1834.43 940.398 1835.76 938.838C1836.1 938.438 1843.15 936.298 1845.43 934.998C1848.19 933.428 1853.63 928.528 1855.27 927.838C1857.6 926.848 1856.93 932.498 1856.77 933.118C1856.72 933.318 1854.25 935.458 1853.76 935.828C1854.05 936.088 1854.58 936.858 1854.76 936.828ZM1813.88 951.748C1813.71 951.618 1811.94 948.188 1812.22 947.818C1818.99 943.998 1824.26 938.658 1829.27 932.848C1839.21 939.418 1815.23 952.748 1813.88 951.738V951.748ZM1834.76 941.838C1835.11 942.208 1834.99 944.918 1834.12 945.918C1832.01 948.328 1820.52 954.238 1816.78 953.818L1827.24 946.798C1828.51 945.858 1833.06 939.998 1834.76 941.838ZM1807.8 945.298C1811.19 947.508 1801.46 953.908 1799.78 954.828C1798.95 950.428 1802.5 941.858 1807.8 945.298ZM1799.77 944.828L1800.26 935.838C1803.98 938.758 1805.68 943.898 1799.77 944.828ZM1813.77 955.828L1800.77 958.818C1805.25 953.978 1811.01 944.078 1813.77 955.828ZM1812.33 944.918C1809.68 946.368 1807.22 943.168 1806.9 941.148C1806.58 939.108 1823.58 928.968 1825.27 924.858C1832.84 930.548 1817.19 942.258 1812.34 944.918H1812.33ZM1823.58 922.138C1822.95 925.128 1808.55 937.328 1806.08 937.708C1804.7 937.918 1800.38 934.498 1802.79 932.368C1805.65 929.848 1812.08 927.038 1815.68 924.258C1817.05 923.198 1821.8 917.888 1822.26 917.858C1823.66 917.798 1823.87 920.748 1823.58 922.138ZM1819.84 916.368C1817.97 919.548 1802.1 932.518 1798.94 930.678C1798.71 930.548 1796.43 926.328 1796.78 925.848L1807.69 920.248C1810.26 919.888 1817.82 909.658 1818.79 910.328C1820.79 911.688 1821.06 914.328 1819.85 916.378L1819.84 916.368ZM1812.41 913.488C1810.02 915.848 1797.2 925.008 1794.75 923.418C1794.36 923.168 1792.83 920.498 1792.85 920.308C1792.96 918.888 1813.91 907.728 1815.27 902.848C1819.65 906.438 1815.33 910.598 1812.42 913.478L1812.41 913.488ZM1813.62 900.118C1812.71 903.768 1797.94 914.818 1794.1 916.668C1788.56 919.338 1786.7 913.488 1787.84 911.918C1788.16 911.478 1795.77 908.478 1797.69 907.258C1803.07 903.828 1807.66 899.598 1812.76 895.838C1812.78 897.298 1814.01 898.598 1813.63 900.118H1813.62ZM1810.63 893.128C1809.7 896.728 1790.02 910.228 1786.28 909.888C1784.31 909.708 1782.01 906.268 1783.19 904.788C1783.67 904.178 1794.44 899.118 1796.9 897.468C1801.04 894.688 1804.88 891.518 1808.27 887.858C1809.63 889.088 1811.11 891.278 1810.63 893.128ZM1788.61 918.588C1789.69 925.028 1774.44 942.438 1769.24 946.808C1764.75 950.578 1757.55 957.498 1754.78 948.858C1761.72 945.128 1770.24 937.008 1775.28 930.858C1778.5 926.938 1782.18 918.008 1784.3 915.878C1786.55 913.618 1788.26 916.498 1788.61 918.598V918.588ZM1787.18 928.748C1789.1 925.758 1789.7 920.098 1792.53 924.568C1796.46 930.768 1798.96 944.398 1795.54 951.108C1791.03 959.968 1782.13 959.658 1773.77 959.828L1772.27 961.828C1774.6 961.888 1776.95 961.728 1779.28 961.828C1780.49 961.878 1783 961.068 1782.76 962.818C1780.25 962.518 1776.53 964.898 1774.42 964.558C1772.42 964.228 1770.98 961.668 1769.76 960.828C1767.12 959.008 1764.31 957.298 1761.77 955.338C1772.85 948.468 1780.21 939.618 1787.18 928.758V928.748ZM1783.77 964.838C1781.61 968.328 1779.68 970.488 1776.78 966.318L1783.77 964.838ZM1792.76 960.838C1793.3 961.338 1788.07 974.058 1784.76 972.378C1779.51 969.718 1790.9 959.088 1792.76 960.838ZM1795.78 960.838C1797.48 960.578 1796.85 963.238 1796.76 964.308C1796.54 966.708 1793.73 976.828 1791.27 976.808C1790.91 976.808 1788.74 974.618 1788.91 973.508C1789.22 971.468 1795.45 963.988 1795.79 960.838H1795.78ZM1793.25 980.838C1799.05 983.548 1786.92 1002.88 1785.6 1003.64C1784.2 1004.44 1780.74 1003.5 1780.78 1002.33C1780.81 1001.61 1787.44 994.468 1787.94 992.508L1793.24 980.838H1793.25ZM1796.77 984.818C1804.94 986.068 1803.3 991.008 1800.18 996.738C1799.39 998.198 1793.48 1006.94 1792.77 1007.39C1791 1008.51 1788.67 1005.61 1786.77 1005.81C1791.14 999.508 1796.46 992.908 1796.77 984.818ZM1794.81 1007.38C1794.93 1006.86 1800.26 1001.33 1801.57 999.118C1802.9 996.878 1804.44 991.108 1804.78 990.818C1805.28 990.398 1807.55 990.728 1808.3 991.798C1809.87 994.018 1805.57 1010.93 1803.13 1011.75C1801.15 1012.42 1794.31 1009.59 1794.81 1007.39V1007.38ZM1810.78 993.818C1811.51 994.458 1814.55 995.778 1814.66 995.978C1815.2 996.908 1811.85 1016.21 1805.77 1013.81C1808.43 1007.51 1810.9 1000.77 1810.78 993.818ZM1811.25 1013.82C1813.28 1009.24 1817.25 1004.68 1816.77 998.818C1817.21 998.378 1820.04 999.528 1820.49 1000.09C1823.21 1003.51 1818.9 1013.44 1816.27 1015.82C1813.94 1017.93 1809.91 1016.82 1811.25 1013.82ZM1819.77 997.318L1825.76 995.828C1825.45 1000.81 1822.99 1001.21 1819.77 997.318ZM1821.79 1011.35C1822.78 1009.06 1823.54 1006.33 1823.77 1003.83C1832.37 1004.34 1824.19 1020.88 1819.28 1019.83C1816.51 1017.87 1820.73 1013.81 1821.79 1011.36V1011.35ZM1813.76 993.328C1811.99 992.068 1813.43 991.888 1814.27 990.828C1818.71 985.178 1823.88 980.388 1827.27 973.848C1830.63 977.288 1832.02 985.538 1830.25 989.808C1828.17 994.788 1817.96 996.318 1813.77 993.338L1813.76 993.328ZM1828.78 972.328L1842.75 961.828C1846.16 967.048 1832.01 978.738 1828.78 972.328ZM1832.76 976.838C1832.86 976.728 1834.7 976.888 1835.65 976.258C1838.15 974.618 1840.82 971.498 1843.24 969.808C1846.19 967.748 1847.89 971.518 1847.3 972.848C1846.53 974.578 1835.9 982.608 1834.8 981.808C1834.58 981.648 1832.5 977.118 1832.76 976.838ZM1837.77 982.858C1838.15 982.348 1847.43 978.898 1848.26 975.838C1857.3 981.578 1839.54 987.398 1838.77 986.818C1838.61 986.698 1837.62 983.058 1837.77 982.858ZM1851.18 972.778C1851.58 972.218 1861.92 967.698 1863.75 966.828C1866.6 973.688 1858.07 977.538 1852.77 979.828C1852.74 977.598 1849.69 974.868 1851.18 972.788V972.778ZM1848.78 970.818C1848.57 970.678 1847.45 966.338 1847.79 965.868C1848.26 965.208 1860.79 960.868 1862.76 959.838C1866.07 963.718 1849.9 971.588 1848.78 970.828V970.818ZM1861.64 956.678C1861.15 957.518 1846.17 966.138 1844.88 962.208C1843.38 957.638 1846.37 959.328 1849.47 958.058C1853.18 956.528 1856.94 954.088 1860.27 951.848C1861.19 952.668 1862.17 955.778 1861.64 956.688V956.678ZM1842.06 913.638C1839.43 915.258 1823.02 924.598 1824.88 916.458C1825.18 915.148 1836.73 910.118 1839.09 908.678C1840.48 907.828 1849.66 899.578 1850.75 900.848C1852.41 908.008 1847.4 910.358 1842.06 913.638ZM1848.54 898.628C1840.54 904.558 1832.57 911.158 1822.77 913.838L1820.76 907.848C1826.35 906.538 1833.23 902.878 1838.1 899.678C1839.39 898.828 1847.91 890.828 1848.75 891.848L1848.54 898.638V898.628ZM1841.56 862.208C1840.77 866.228 1812.1 885.858 1809.74 884.418C1809.12 884.038 1806.7 879.468 1807.22 878.818C1819.78 873.888 1830.03 864.878 1839.75 855.848C1839.64 857.808 1841.89 860.528 1841.56 862.208ZM1838.29 852.808C1837.88 853.718 1828.3 863.088 1826.78 864.348C1822.8 867.648 1815.06 872.768 1810.44 874.998C1809.15 875.618 1807.25 877.348 1805.76 876.408C1805.18 876.038 1800.35 866.238 1800.78 865.838C1808.28 865.128 1814.87 861.278 1821.44 858.008L1837.76 845.838C1837.76 848.288 1839.44 850.278 1838.29 852.798V852.808ZM1796.7 884.278C1793.62 886.588 1788.46 889.528 1784.77 890.828C1790.21 884.638 1796.26 879.218 1800.27 871.858C1806.29 877.988 1802.25 880.118 1796.71 884.268L1796.7 884.278ZM1834.33 831.358C1833.63 837.948 1803.84 857.578 1795.78 857.848C1796.18 853.798 1792.06 851.668 1791.77 847.858C1801.47 844.978 1811.97 838.878 1819.78 832.358C1822.94 829.728 1826.13 825.038 1829.25 822.838C1832.87 820.288 1834.57 829.038 1834.33 831.358ZM1794.29 860.778C1792.85 864.968 1783.08 878.608 1779.75 882.318C1778.37 883.858 1772.72 890.258 1770.76 889.388C1769.27 888.728 1766.41 884.768 1767.23 882.878C1767.87 881.398 1778.19 871.588 1780.61 868.188C1784.24 863.088 1787.72 856.778 1789.79 850.858C1790.83 850.068 1794.98 858.788 1794.3 860.788L1794.29 860.778ZM1784.75 880.318C1789.11 875.018 1791.13 869.368 1794.53 864.128C1795.16 863.168 1794.42 862.338 1796.75 862.848C1799.18 868.278 1799.07 868.838 1796.17 873.748C1791.23 882.138 1782.68 889.868 1773.78 893.838C1771.96 891.538 1782.93 882.528 1784.75 880.318ZM1790.1 891.668C1791.99 890.558 1805.03 880.148 1805.76 880.848C1805.53 882.378 1806.75 884.078 1806.69 885.418C1806.53 889.048 1784.13 903.518 1780.41 902.928C1779.7 902.818 1778.26 898.908 1776.79 898.348C1776.77 897.498 1788.17 892.808 1790.1 891.678V891.668ZM1780.27 906.858C1781.26 908.148 1783.67 910.598 1783.58 912.168C1783.26 917.648 1767.95 935.748 1763.3 939.858C1757.7 944.808 1751.33 951.728 1745.79 943.328C1760.35 933.658 1771.97 922.368 1780.27 906.858ZM1750.31 960.858C1751.03 958.398 1750.79 955.648 1751.67 953.188C1752.02 952.208 1751.28 951.338 1753.21 951.878C1754.75 952.308 1758.52 955.078 1758.35 956.878C1758.14 959.138 1754.78 967.598 1753.64 970.168C1752.61 972.488 1745.9 984.918 1744.62 985.658C1743.12 986.528 1739.86 984.648 1738.8 983.308C1744.49 976.738 1747.91 969.118 1750.31 960.848V960.858ZM1759.78 957.828C1760.94 956.828 1764.77 959.478 1765.25 960.798C1766.44 964.068 1752.15 989.228 1748.72 988.418C1748.02 988.248 1745.79 986.758 1745.78 986.328C1753.82 978.788 1757.85 968.538 1759.77 957.828H1759.78ZM1761.8 976.348C1763.27 973.658 1766.2 963.248 1766.79 962.838C1768.25 961.838 1772.54 964.708 1772.35 966.898C1772.19 968.708 1764.67 983.798 1763.21 985.768C1760.47 989.448 1753.36 994.398 1751.79 987.858C1755.52 986.028 1759.73 980.168 1761.8 976.358V976.348ZM1773.78 967.828C1774.98 966.798 1778.78 969.518 1779.32 970.858C1780.62 974.048 1769.48 992.508 1766.13 994.718C1763.6 996.398 1761.66 995.348 1759.79 993.318C1765.93 985.758 1772.35 977.818 1773.78 967.818V967.828ZM1767.78 996.338C1768.7 994.208 1775.35 988.218 1776.59 985.148L1782.25 972.838C1787.19 974.828 1781.53 985.928 1779.59 989.148C1778.89 990.318 1773.11 998.388 1772.62 998.738C1772.39 998.898 1766.94 998.288 1767.78 996.348V996.338ZM1776.2 998.778C1777.62 993.028 1787.35 984.528 1786.77 976.828C1792.33 977.468 1789.81 981.578 1788.52 985.088C1787.51 987.848 1780.06 1002.4 1777.27 1001.81C1775.73 1000.6 1775.75 1000.56 1776.19 998.768L1776.2 998.778ZM1779.76 1006.33C1785.26 1003.61 1784.03 1014.57 1783.75 1018.31C1783.55 1020.92 1779.89 1036.87 1778.62 1037.67C1777.72 1038.24 1774.48 1038.66 1774.78 1036.35C1775.98 1027.11 1781.85 1016.69 1779.76 1006.33ZM1785.77 1024.32V1007.82C1792.79 1007.49 1791.21 1020.16 1790.75 1025.3C1790.44 1028.71 1789.2 1038.45 1785.22 1038.85C1778.03 1039.57 1785.76 1028.01 1785.76 1024.32H1785.77ZM1783.47 1053.02C1783.94 1050.61 1784.36 1041.27 1784.77 1040.82C1785.59 1039.93 1787.69 1040.94 1788.54 1042.54C1789.58 1044.51 1791.53 1060.23 1790.63 1061.67C1790.02 1062.64 1782.58 1063.04 1780.78 1063.81C1781.09 1060.07 1782.76 1056.7 1783.48 1053.02H1783.47ZM1790.76 1041.33C1790.85 1040.45 1794.6 1040.69 1794.75 1040.83C1795.43 1041.51 1796.9 1057.9 1794.28 1059.81C1791.79 1054.45 1792.4 1047.21 1790.76 1041.33ZM1808.81 1038.36C1808.01 1038.88 1805.09 1039.09 1804.78 1038.81C1804.25 1038.33 1807.58 1032.15 1808.05 1030.6C1808.82 1028.03 1809.58 1018.26 1812.26 1018.83C1816.6 1019.75 1810.14 1037.5 1808.82 1038.36H1808.81ZM1810.77 1040.81C1810.91 1040.67 1814.62 1040.67 1814.76 1040.81C1815.47 1041.49 1816.06 1059.4 1809.78 1057.81C1811.02 1055.08 1810.16 1041.39 1810.77 1040.81ZM1811.77 1038.81C1811.12 1038.19 1817.89 1024.6 1815.76 1021.33C1825.26 1018.49 1816.12 1042.95 1811.77 1038.81ZM1817.76 1040.81H1828.77C1829.23 1041.27 1828.71 1052.43 1827.54 1053.59C1827.15 1053.98 1817.15 1056.21 1816.77 1055.81L1817.76 1040.81ZM1818.77 1038.81L1822.77 1023.81C1823.45 1023.2 1832.29 1026.45 1832.61 1026.96C1833.69 1028.7 1830.88 1036.73 1829.36 1037.9C1826.93 1039.79 1821.84 1038.43 1818.77 1038.8V1038.81ZM1831.77 1039.81L1836.38 1028.74C1838.85 1029.48 1852.46 1031.98 1852.62 1034.3C1851.26 1035.94 1850.67 1040.47 1848.83 1041.31C1847.07 1042.11 1835.18 1038.33 1831.77 1039.82V1039.81ZM1835.57 1024.64C1833.24 1026.01 1827.46 1022.22 1824.8 1021.77L1829.76 1008.82C1831.55 1007.25 1840.29 1014.42 1841.56 1016.31C1840.24 1017.44 1836.22 1024.25 1835.56 1024.64H1835.57ZM1830.92 1005.16C1829.08 999.568 1832.46 985.878 1839.76 990.318C1840.56 990.808 1850.38 1004.64 1850.61 1005.55C1851.49 1009.06 1844.88 1009.7 1844.66 1013.75C1843.41 1014.64 1831.19 1005.99 1830.92 1005.16ZM1840.78 989.328L1852.74 983.828C1852.54 986.718 1859.94 999.388 1859.74 1000.26C1859.56 1001.04 1853.36 1004.96 1852.31 1004.89L1840.77 989.328H1840.78ZM1861.64 1002.94C1862.13 1003.23 1867.54 1011.95 1867.62 1012.51C1867.79 1013.62 1865.99 1015.61 1865.13 1015.76C1864.35 1015.9 1855.04 1008.33 1854.8 1007.25C1854.41 1005.51 1860.12 1002.04 1861.65 1002.94H1861.64ZM1869.64 995.218C1869.32 996.578 1863.52 998.968 1862.36 998.698C1860.8 998.328 1854.36 984.108 1854.84 982.478C1855.06 981.718 1864.97 975.138 1865.75 975.828C1865.02 979.228 1869.96 993.838 1869.64 995.218ZM1867.02 964.568L1882.76 957.838C1885.47 960.558 1871.13 968.348 1869.03 968.668C1865.88 969.148 1864.09 965.708 1867.02 964.568ZM1881.26 954.838C1880.19 957.018 1866.14 963.238 1864.76 961.828C1864.95 960.658 1864.38 957.308 1864.8 956.868C1865.13 956.528 1871.89 955.378 1874.01 954.588C1877.41 953.318 1884.74 947.708 1881.25 954.838H1881.26ZM1881.59 948.668C1880.94 949.718 1864.61 955.628 1863.77 954.818C1863.6 954.648 1862.7 950.588 1863.7 950.338L1881.75 942.828C1881.48 944.418 1882.32 947.498 1881.59 948.668ZM1881.59 939.168C1880.85 941.398 1867.54 946.928 1864.79 947.428C1860.64 948.188 1861.94 942.758 1860.75 939.838C1868.04 938.738 1875.02 936.768 1881.75 933.838C1881.65 935.528 1882.12 937.568 1881.59 939.168ZM1881.27 930.848C1879.55 933.798 1863.69 936.798 1859.77 937.828C1859.93 936.808 1859.44 934.308 1859.82 933.888C1860.6 933.038 1879.1 930.228 1881.75 926.828C1881.76 928.178 1882 929.588 1881.27 930.838V930.848ZM1880.2 924.778C1878.57 926.738 1859.71 932.818 1858.77 931.838L1857.77 925.838C1865.97 926.698 1872.26 923.018 1879.26 920.798C1880.04 920.548 1881.62 919.068 1881.74 921.318C1881.74 921.508 1880.45 924.478 1880.21 924.768L1880.2 924.778ZM1879.79 918.358C1877.62 920.488 1858.7 925.108 1857.21 922.878C1856.6 921.968 1856.51 916.068 1856.76 915.828C1857.16 915.448 1865.12 915.098 1867.73 914.298C1872.48 912.858 1876.14 909.438 1880.75 907.828C1880.35 910.698 1881.81 916.368 1879.78 918.348L1879.79 918.358ZM1879.6 896.178C1878.65 899.078 1856.2 907.378 1853.86 905.748C1850.58 896.038 1854.24 899.048 1860.02 897.598C1866.96 895.858 1873.54 893.378 1879.75 889.838C1879.59 891.818 1880.2 894.338 1879.6 896.178ZM1878.77 878.348C1876.28 881.048 1850.91 888.908 1849.77 887.838C1849.51 887.598 1848.52 881.178 1848.79 880.868C1849.23 880.358 1859.16 878.338 1861.75 877.318C1863.83 876.498 1866.73 875.258 1868.66 874.228C1870.07 873.478 1878.19 867.138 1878.76 867.838C1877.84 871.278 1881.12 875.798 1878.78 878.338L1878.77 878.348ZM1865.45 873.028C1863.24 874.038 1849.4 879.048 1848.33 878.788C1846.36 878.318 1846.38 872.218 1846.77 871.848C1846.95 871.668 1850.35 871.798 1851.8 871.388C1861.28 868.718 1870.31 863.868 1877.26 856.858C1883.41 864.738 1871.63 870.208 1865.45 873.028ZM1876.8 832.298C1876.36 835.658 1861.1 843.428 1857.44 845.018C1855.06 846.058 1841.81 850.938 1840.77 849.848L1839.76 843.848C1853.12 840.788 1865.26 835.738 1875.75 826.848C1876 828.678 1877.05 830.358 1876.8 832.288V832.298ZM1875.57 823.138C1873.89 828.818 1841.95 843.388 1838.84 840.768C1838.67 839.198 1837.02 833.638 1837.77 832.878C1838.19 832.448 1847.34 830.898 1849.54 830.148C1858.73 826.998 1867.39 822.178 1874.74 815.868C1875.27 818.318 1876.34 820.528 1875.56 823.148L1875.57 823.138ZM1874.24 811.838C1871 818.898 1845.24 830.798 1836.8 830.818L1833.76 818.868C1843.76 816.828 1853.23 815.158 1862.76 811.358C1865.37 810.318 1868.55 807.958 1871.22 806.818C1875.29 805.078 1875.64 808.798 1874.24 811.848V811.838ZM1873.31 802.868C1870.87 806.748 1835.02 818.798 1832.65 815.278C1831.52 813.608 1831.13 807.238 1830.77 804.858C1835.42 804.488 1840.71 805.368 1845.27 804.858C1848.9 804.448 1855.54 802.108 1859.28 800.878C1862.61 799.778 1868.64 796.208 1871.3 795.868C1873.56 795.578 1874.18 801.488 1873.31 802.868ZM1870.56 776.668C1867.7 781.508 1834.25 789.408 1827.33 789.738C1826 789.408 1821.19 771.088 1820.84 768.288C1820.28 763.768 1820.89 759.278 1821.77 754.868C1831.55 757.798 1841.42 760.878 1851.53 762.588C1854.39 763.068 1868.06 763.758 1868.82 764.298C1869.59 764.848 1871.15 775.658 1870.56 776.668ZM1810.77 749.348C1809.92 747.308 1812.15 747.938 1813.24 747.858C1818.4 747.498 1823.62 747.818 1828.75 746.868C1825.42 751.118 1813.56 756.088 1810.76 749.348H1810.77ZM1774.6 843.178C1776.24 839.998 1777.29 836.428 1778.52 833.068C1778.78 832.348 1778.44 829.898 1780.26 830.858C1784.76 833.228 1781.48 839.518 1779.94 842.518C1775.17 851.848 1767.85 860.238 1759.78 866.848C1763.46 858.468 1770.36 851.388 1774.59 843.178H1774.6ZM1769.29 861.858C1774.96 855.638 1780.65 847.678 1783.79 839.848C1786.63 841.438 1789.16 845.638 1788.36 848.838C1787.69 851.528 1781.1 863.048 1779.21 865.778C1777.61 868.088 1766.09 881.288 1764.31 880.838C1763.47 879.478 1757.87 872.868 1757.88 872.338C1757.88 871.568 1767.38 863.958 1769.29 861.858ZM1745.77 907.838C1751.18 898.278 1753.74 887.748 1758.28 877.848C1760.53 877.328 1768.83 889.938 1768.75 892.228C1768.4 902.428 1751.21 921.038 1743.77 927.838C1741.46 929.948 1739.25 933.138 1735.77 933.858C1736 935.018 1736.59 935.598 1737.85 935.458C1740.88 935.128 1753.08 922.408 1755.74 919.308C1761.94 912.088 1767.56 903.898 1770.78 894.838C1771.5 894.298 1778.7 902.708 1778.75 904.308C1778.83 906.588 1767.58 921.228 1765.28 923.848C1758.95 931.048 1751.47 936.938 1743.27 941.868L1727.79 930.328C1734.64 923.688 1741.04 916.188 1745.77 907.828V907.838ZM1725.78 933.828C1728.21 933.618 1732.39 935.898 1732.82 938.358C1733.74 943.628 1724.15 972.718 1719.12 973.618C1718.56 973.718 1715.99 972.928 1715.85 972.728C1713.91 970.138 1727.3 939.818 1725.78 933.828ZM1718.27 926.838C1721.38 928.968 1724.04 929.788 1723.74 934.178C1723.57 936.708 1720.64 948.918 1719.55 951.098C1718.41 953.398 1715.58 956.288 1712.78 955.808C1715.99 946.498 1717 936.548 1718.27 926.828V926.838ZM1716.77 957.838C1714.51 964.168 1714.12 974.918 1706.21 966.838C1705.44 965.168 1713.43 956.288 1716.77 957.838ZM1703.3 1007.84C1705.44 996.418 1705.97 984.888 1706.78 973.308C1706.87 971.968 1706.07 970.258 1708.26 970.838C1708.82 970.988 1710.99 972.338 1711.28 972.818C1713.65 976.698 1710.6 1005.71 1709.51 1012.04C1708.92 1015.46 1705.58 1030.81 1704.24 1032.76C1702.17 1035.78 1699.04 1034.72 1695.79 1034.8C1698.21 1025.67 1701.55 1017.22 1703.31 1007.83L1703.3 1007.84ZM1688.77 1056.81C1686.99 1056.04 1686.35 1052.15 1685.76 1050.34C1685.19 1048.58 1681.24 1036.35 1681.78 1035.83C1684.23 1036.21 1691.88 1034.59 1692.69 1037.45C1693.59 1040.62 1688.16 1052.48 1688.76 1056.82L1688.77 1056.81ZM1702.78 1060.31C1702.78 1064.52 1699.27 1071.38 1698.77 1075.81C1684.73 1070.07 1692.22 1052.89 1694.52 1042.05C1694.82 1040.65 1694.59 1037 1694.77 1036.81C1695.09 1036.47 1701.3 1037.06 1702.77 1036.81V1060.31H1702.78ZM1702.79 1074.81C1703.77 1062.07 1706.86 1049.7 1705.78 1036.81C1708.15 1036.76 1711.62 1036.15 1711.81 1039.31C1708.97 1050.59 1710.49 1065.75 1702.79 1074.81ZM1726.64 1072.67C1726.54 1072.78 1724.1 1073.39 1723.83 1073.38C1720.41 1073.34 1722.74 1070.36 1722.77 1068.3C1722.92 1057.99 1722.4 1047.99 1720.78 1037.82C1723.99 1037.55 1727.05 1037.64 1727.75 1041.34C1728.34 1044.47 1727.7 1071.49 1726.64 1072.67ZM1727.61 1035.65C1726.94 1036.05 1722.36 1036.09 1721.41 1035.85C1720.29 1035.57 1720.95 1034.06 1720.78 1033.82C1720.67 1033.67 1720.09 1033.94 1719.78 1033.82C1718.75 1036.75 1718.62 1039.74 1718.78 1042.82C1718.82 1043.68 1719.76 1045.32 1719.82 1047.25C1719.94 1051.21 1720.4 1072.12 1718.8 1073.34C1717.6 1074.25 1708.46 1075.44 1707.79 1074.81C1710.75 1063.61 1712.57 1053.34 1713.78 1041.82C1713.89 1040.73 1713.42 1038.4 1713.89 1037.89C1714.47 1037.25 1717.71 1039.06 1716.78 1035.83L1706.77 1034.31C1711.97 1014.92 1715.74 995.048 1714.79 974.838C1719.55 973.778 1720.81 982.038 1720.87 985.338C1720.98 992.348 1719.73 1005.08 1718.68 1012.22C1718.21 1015.4 1713.23 1031.92 1713.8 1032.82C1714.04 1033.21 1715.58 1031.76 1715.79 1031.82C1724.15 1015.9 1721.55 998.258 1722.79 981.308C1722.89 979.988 1722.09 978.238 1724.27 978.838C1730.5 980.558 1729.32 995.758 1728.78 1001.31C1727.77 1011.69 1722.18 1023.31 1720.79 1033.81C1723.39 1031.75 1725.44 1027.14 1726.56 1024.09C1727.85 1020.57 1730.79 1009.6 1730.79 1006.32V982.818C1738.99 983.198 1737.2 995.118 1736.78 1001.3C1736.44 1006.29 1730.94 1033.64 1727.63 1035.64L1727.61 1035.65ZM1733.63 1071.67C1732.63 1072.29 1730.14 1071.6 1728.78 1071.8C1731.56 1060.87 1730.7 1049.9 1729.78 1038.81C1730.87 1039 1733.03 1038.43 1733.66 1038.94C1735.29 1040.27 1735.45 1070.55 1733.63 1071.67ZM1733.12 1036.66C1732.41 1036.96 1729.76 1037.22 1729.76 1036.3C1729.76 1034.91 1733.67 1027.59 1734.48 1025.02C1735.65 1021.33 1738.77 1010.52 1738.77 1007.31V986.808C1744.48 985.638 1742.96 995.138 1742.76 999.298C1742.48 1005.28 1738.21 1034.5 1733.12 1036.65V1036.66ZM1740.87 1070.18C1740.26 1071.08 1737.9 1071.07 1736.79 1071.81C1737.78 1060.72 1738.35 1049.77 1735.78 1038.82C1737.09 1039.06 1741.23 1038.39 1741.73 1038.87C1743.62 1040.7 1743.1 1066.91 1740.87 1070.18ZM1736.78 1036.81C1737.78 1033.61 1739.58 1030.2 1740.5 1027.04C1741.56 1023.4 1744.78 1012.31 1744.78 1009.32V989.818C1746.96 987.088 1748.56 997.408 1748.66 998.438C1749.45 1006.72 1748.73 1015.38 1746.92 1023.45C1746.45 1025.57 1743.74 1035.04 1742.9 1036.22C1741.93 1037.59 1738.43 1036.53 1736.79 1036.8L1736.78 1036.81ZM1750.51 1063.05C1749.93 1066.85 1748.47 1071.14 1743.78 1070.81C1746.11 1059.87 1745.72 1049.87 1744.78 1038.82C1745.88 1039.85 1749.52 1039.66 1749.73 1039.86C1750.56 1040.67 1750.89 1060.55 1750.51 1063.05ZM1750.12 1036.83C1748.8 1037.12 1747.18 1036.69 1745.78 1036.81C1750.74 1022.58 1751.32 1007.77 1750.78 992.828C1756.47 991.548 1756.87 999.078 1756.86 1003.32C1756.83 1012.48 1752.56 1024.7 1753.78 1032.82C1759.18 1021.36 1759.86 1008.27 1757.78 995.828C1765.06 994.658 1764.89 1006.01 1764.83 1011.35C1764.77 1016.35 1763.52 1026.02 1762.5 1031.04C1762.27 1032.16 1761.31 1036.57 1760.78 1036.82C1759.69 1038.25 1754.57 1038.24 1753.32 1037.89C1752.59 1037.68 1752.72 1036.85 1752.76 1036.1C1752.6 1035.72 1752.46 1035.29 1752.36 1034.87C1752.33 1034.85 1752.3 1034.83 1752.26 1034.82C1750.16 1034.06 1751.17 1036.61 1750.12 1036.84V1036.83ZM1755.79 1068.33C1749.52 1072.03 1752.71 1064.56 1752.82 1061.36C1753.07 1054.16 1752.91 1046.91 1751.78 1039.83H1760.79C1761.19 1044.62 1759.54 1066.12 1755.8 1068.33H1755.79ZM1759.78 1067.81C1762.24 1059.19 1762.41 1052.1 1762.77 1043.31C1762.83 1041.77 1761.83 1039.35 1764.25 1039.83C1766.02 1040.99 1765.67 1042.51 1765.82 1044.27C1766.35 1050.78 1767.4 1065.62 1759.77 1067.81H1759.78ZM1763.78 1036.81L1766.76 1019.3L1767.28 998.838C1768.32 1000.01 1770.08 1000.98 1770.57 1002.53C1772.83 1009.76 1770.64 1025.18 1767.82 1032.35C1767.08 1034.23 1766.49 1037.14 1763.78 1036.8V1036.81ZM1771.77 1058.31C1771.77 1060.79 1769.58 1065.4 1767.27 1066.8C1766.82 1058.02 1769.65 1048.87 1768.78 1039.8H1771.78V1058.3L1771.77 1058.31ZM1769.78 1036.82C1772.2 1026 1773.31 1017.39 1773.77 1006.32C1773.83 1004.78 1772.83 1002.36 1775.25 1002.84C1777.02 1004 1776.67 1005.52 1776.82 1007.28C1777.55 1016.26 1777.26 1030.63 1769.78 1036.83V1036.82ZM1772.78 1064.81C1772.18 1063.41 1773.77 1061.83 1773.77 1061.32C1773.77 1057.13 1772.92 1044.12 1773.77 1041.32C1774.6 1038.62 1780.8 1040.53 1782.78 1041.33C1780.6 1049.01 1783.17 1063.23 1772.77 1064.81H1772.78ZM1791.77 1084.31C1791.41 1085.41 1786.16 1087.22 1785.78 1086.81L1780.71 1066.39C1780.79 1065.81 1791.77 1062.69 1791.77 1065.31C1791.77 1069.15 1792.56 1081.89 1791.77 1084.31ZM1799.64 1081.67C1799.31 1082.2 1796.25 1082.79 1795.29 1082.82C1794.3 1082.76 1794.91 1073.99 1794.76 1072.32C1794.68 1071.44 1791.64 1058.99 1795.77 1062.81C1796.48 1063.47 1800.16 1080.84 1799.64 1081.67ZM1803.27 1079.79L1797.77 1062.82L1806.77 1060.8C1807.06 1067.96 1810.65 1075 1803.27 1079.78V1079.79ZM1813.21 1074.49C1810.17 1074.04 1809.62 1062.42 1808.76 1059.82L1814.76 1058.81C1813.71 1062.93 1820.63 1075.59 1813.21 1074.48V1074.49ZM1816.76 1057.82L1828.76 1055.81C1830.1 1066.24 1828.16 1068.39 1818.77 1071.8L1816.76 1057.81V1057.82ZM1828.26 1087.79L1819.79 1074.3L1829.27 1068.83C1832.4 1076.38 1836.78 1082.38 1828.26 1087.79ZM1851.68 1070.69C1850.57 1072.27 1838 1078.18 1835.77 1080.81L1831.76 1067.82C1835.65 1067.91 1845.44 1062.66 1848.31 1063.1C1849.72 1063.32 1852.12 1070.06 1851.68 1070.68V1070.69ZM1849.76 1052.82C1852.25 1053.73 1863.27 1049.3 1863.76 1049.82C1867.24 1053.52 1852.25 1057.74 1850.78 1059.81L1849.76 1052.81V1052.82ZM1865.75 1054.82C1866.65 1061.85 1865.45 1059.75 1861.83 1062.36C1858.66 1064.65 1852.93 1071.39 1851.9 1064.08C1851.4 1060.52 1862.23 1055.93 1865.76 1054.82H1865.75ZM1864.76 1042.82C1864.9 1042.97 1864.86 1045.5 1864.6 1046.16C1863.43 1049.16 1853.09 1049.87 1849.76 1050.81C1850.05 1049.62 1850.55 1044.12 1850.81 1043.88C1851.32 1043.4 1864.27 1042.32 1864.76 1042.82ZM1854.8 1029.36C1850.87 1033.04 1842.81 1026.9 1837.76 1026.8C1841.73 1015.4 1846.26 1016.73 1854.7 1023.36C1857.15 1025.28 1857.19 1027.11 1854.79 1029.35L1854.8 1029.36ZM1858.11 1022.72C1857.4 1022.84 1845.79 1016.04 1845.77 1015.33C1847.33 1014.27 1851.1 1009.13 1852.39 1008.9C1853.13 1008.77 1862.45 1016.62 1862.51 1017.31C1862.59 1018.37 1859.21 1022.54 1858.11 1022.72ZM1860.76 1024.3C1860.43 1022.87 1864.56 1019.01 1865.74 1019.83L1871.75 1028.82C1870.31 1030.07 1862.2 1025.98 1860.75 1024.3H1860.76ZM1877.75 1021.81C1874.77 1022.28 1875.21 1018.52 1872.76 1017.29C1870.43 1016.12 1870.89 1017.83 1870.76 1017.82C1872.81 1018.08 1876.32 1025.91 1873.26 1025.8C1872.67 1025.78 1865.54 1019.26 1867.76 1016.82C1873.25 1010.79 1879.45 1012.83 1877.75 1021.81ZM1882.75 1018.82C1882.64 1018.92 1879.87 1018.93 1879.76 1018.82C1879.4 1018.48 1877.23 1009.17 1881.66 1011.89C1882.25 1012.25 1883.2 1018.38 1882.75 1018.81V1018.82ZM1882.76 991.818C1882.38 992.248 1873.29 994.578 1871.77 994.818C1871 994.108 1867.57 976.028 1867.67 974.298C1867.78 972.538 1867.86 971.968 1869.35 970.898C1869.87 970.528 1879.98 965.588 1880.78 965.308C1881.87 964.918 1882.76 966.038 1882.76 966.318C1882.76 969.948 1883.6 990.858 1882.76 991.818ZM1883.71 939.288C1882.16 930.758 1891.01 935.958 1896.37 936.708C1898.81 937.048 1901.3 936.758 1903.75 936.838C1903.48 937.928 1903.08 941.628 1902.14 941.888C1899.96 942.488 1883.91 940.338 1883.72 939.288H1883.71ZM1891.37 943.718C1896.44 944.178 1904.96 941.658 1901.75 948.828H1886.25C1885.55 948.828 1883.98 945.058 1883.94 944.108C1883.75 940.348 1888.73 943.478 1891.37 943.708V943.718ZM1893.75 990.818H1884.76V963.828C1887.71 965.218 1897.53 965.858 1897.79 969.308C1898.2 974.838 1893.11 984.618 1893.75 990.818ZM1885.73 961.348C1884.74 960.378 1884.28 957.318 1884.76 956.828C1885.62 955.948 1897.24 959.848 1899.75 958.828L1898.7 964.768C1897.82 965.538 1887.01 962.588 1885.73 961.338V961.348ZM1899.13 956.748C1898.01 957.058 1881.19 955.258 1885.26 950.818C1890.72 950.098 1895.46 953.098 1900.74 950.818C1900.78 952.618 1901.27 956.128 1899.12 956.738L1899.13 956.748ZM1890.68 1008.24C1888.82 1010.9 1884.76 1009.81 1884.76 1008.32C1884.76 1006.21 1884.23 994.318 1884.76 993.818C1885.05 993.548 1891.62 992.988 1892.77 993.328C1890.83 997.428 1892.99 1004.93 1890.67 1008.23L1890.68 1008.24ZM1896.01 1009.62C1895.35 1010.96 1896.65 1012.37 1893.76 1011.82C1892.51 1008.97 1893.97 996.738 1895.21 994.778C1896.5 992.738 1899.83 994.928 1901.69 994.878C1903.03 996.428 1897.11 1007.38 1896.01 1009.62ZM1914.4 1001.93C1915.42 1001.76 1919.89 1004.65 1919.66 1006.16C1919.37 1008.13 1905.8 1022 1904.38 1021.76C1903.05 1021.53 1901.45 1019.09 1901.87 1017.53C1902.13 1016.56 1913.41 1002.09 1914.4 1001.93ZM1911.7 1001.24C1911.47 1002.21 1900.25 1016.81 1899.25 1016.8C1898.98 1016.8 1897.03 1014.77 1896.86 1014.11C1896.57 1012.98 1903.85 999.238 1905.35 996.898C1906.96 997.258 1912.16 999.228 1911.69 1001.24H1911.7ZM1904.6 992.658C1903.48 993.368 1897.41 992.508 1896.9 991.678C1895.01 988.628 1899.72 972.508 1900.72 968.238L1915.75 969.828L1904.6 992.658ZM1915.21 967.828C1912.64 968.268 1901.42 966.998 1900.91 964.188C1899.39 955.828 1917.32 962.748 1920.74 959.828C1920.31 962.658 1918.26 967.308 1915.21 967.828ZM1920.25 957.828C1916.71 957.828 1906.69 958.558 1904.25 957.828C1902.12 957.188 1902.89 952.628 1903.9 951.978C1905.76 950.788 1920.98 954.198 1924.74 952.828C1925.99 953.938 1921.13 957.818 1920.25 957.818V957.828ZM1905.41 944.748C1909.27 943.968 1921.35 948.868 1926.75 946.838C1925.47 953.218 1911.32 950.798 1906.29 949.798C1902.32 949.008 1904.34 944.968 1905.41 944.748ZM1903.79 934.368C1901.59 935.838 1885.53 933.058 1884.24 930.848C1883.74 929.988 1883.44 927.158 1883.76 926.838C1884.54 926.048 1902.64 930.328 1905.75 928.838C1906.09 929.138 1904.62 933.808 1903.79 934.368ZM1905.75 925.838H1890.25C1886.97 925.838 1882.3 923.958 1883.75 919.848C1887.75 919.358 1891.37 921.468 1895.25 921.828C1900.68 922.328 1909.02 918.668 1905.74 925.838H1905.75ZM1883.89 916.708C1883.12 915.518 1884.14 910.718 1883.77 908.848C1891.74 910.428 1899.45 913.668 1907.77 912.848C1912.67 924.608 1884.7 917.938 1883.9 916.718L1883.89 916.708ZM1908.65 910.718C1907.15 911.988 1885.73 908.018 1883.74 906.348C1881.94 904.838 1882.96 901.068 1882.76 898.828L1909.63 902.948C1910.19 903.828 1909.03 910.388 1908.64 910.708L1908.65 910.718ZM1909.82 899.398C1907.39 901.108 1886.17 898.198 1883.73 896.358C1882.14 895.158 1882.84 892.498 1882.76 890.838C1892.15 892.118 1901.12 894.868 1910.76 893.828C1910.7 895.428 1911.26 898.378 1909.82 899.388V899.398ZM1900.38 891.708C1897.89 891.498 1884.73 888.948 1883.33 887.958C1882.88 887.648 1880.8 880.158 1883.83 880.228C1886.52 880.288 1890.16 881.758 1893.22 881.878C1899.75 882.148 1906.31 881.878 1912.75 880.838C1913.68 892.548 1910.75 892.578 1900.38 891.708ZM1904.24 879.828C1901.41 880.048 1882.84 878.848 1881.81 877.798C1881.27 877.238 1882.08 869.628 1881.75 867.848C1892.72 868.738 1903.82 871.638 1914.74 868.858C1915.88 878.158 1912.59 879.188 1904.23 879.838L1904.24 879.828ZM1914.26 858.848C1908.95 859.838 1892.16 856.888 1886.76 854.848L1884.27 855.848C1894.07 860.428 1905.08 861.168 1915.76 860.848C1915.63 863.748 1916.9 867.178 1913.26 867.848C1908.03 868.818 1888.84 867.268 1883.75 865.358C1879.22 863.668 1880.54 855.408 1880.77 850.848C1880.82 849.798 1880.32 846.818 1881.28 846.838C1892.62 850.998 1904.7 852.438 1916.77 851.848C1916.64 854.748 1917.91 858.168 1914.27 858.848H1914.26ZM1897.55 848.548C1895.29 848.198 1880.45 845.428 1879.86 844.738C1879.2 843.958 1880.08 838.528 1879.76 836.838C1892.73 839.328 1905.34 843.928 1918.75 843.848C1919 853.548 1904.2 849.588 1897.55 848.548ZM1918.7 840.788C1916.38 843.058 1881.27 836.278 1879.24 832.868C1878.39 831.428 1878.79 829.468 1878.75 827.848C1880.1 826.468 1900.42 832.278 1904.37 832.728C1907.69 833.108 1918.9 831.688 1919.67 834.468C1919.76 834.778 1918.92 840.558 1918.69 840.788H1918.7ZM1919.74 830.838C1910.76 831.188 1901.65 830.248 1892.91 828.188C1885.03 826.328 1875 825.088 1877.76 814.848C1891.88 818.238 1906.23 819.458 1920.75 818.838L1919.74 830.828V830.838ZM1919.25 816.858C1913.49 817.918 1899.73 816.558 1893.5 815.608C1887.26 814.658 1873.94 813.388 1876.75 804.858C1891.91 807.828 1906.48 809.478 1921.74 805.858C1921.17 809.128 1923.62 816.048 1919.25 816.858ZM1921.77 803.378C1920.68 804.198 1908.38 805.818 1906.23 805.858C1897.19 806.028 1885.35 804.158 1876.67 802.218L1875.76 794.868C1891.34 797.098 1907.48 798.628 1922.74 793.868C1922.39 796.338 1923.73 801.898 1921.77 803.388V803.378ZM1922.02 791.868C1917.5 794.208 1897.9 795.188 1892.27 794.848C1889.92 794.698 1877.3 792.838 1876.16 791.958C1873.78 790.128 1875.13 782.148 1873.77 778.868C1890.04 783.288 1906.81 785.618 1923.76 784.858C1923.78 786.828 1923.93 790.878 1922.02 791.868ZM1922.81 782.418C1920.23 784.208 1890.76 780.498 1885.72 779.388C1883.94 778.998 1873.32 776.238 1872.88 775.738C1872.15 774.908 1873.14 767.778 1872.76 765.858C1889.34 770.328 1906.55 774.058 1923.75 771.848C1923.38 774.318 1924.7 781.098 1922.81 782.418ZM1924.76 769.868C1917.73 769.488 1910.25 770.378 1903.27 769.848C1898.48 769.478 1875.54 765.008 1872.77 762.348C1869.85 759.538 1870.99 750.028 1869.77 745.868C1887.53 751.938 1905.9 756.258 1924.76 756.858V769.868ZM1925.75 752.368C1925.75 753.068 1924.08 753.718 1923.25 753.868C1913.89 755.578 1889.1 749.888 1879.54 746.578C1871.02 743.628 1868.47 743.648 1867.74 733.378C1876.01 733.538 1884.69 736.388 1893.21 736.908C1904.3 737.578 1915.06 736.678 1925.75 733.868V752.368ZM1875.26 713.878C1875.87 713.098 1876.17 712.868 1877.21 712.858C1879.04 712.838 1891.01 717.698 1894.54 718.588C1898.73 719.648 1904.34 721.138 1908.53 721.598C1912.24 721.998 1924.74 720.808 1925.61 723.508C1925.95 724.568 1926.05 730.068 1925.61 730.738C1924.27 732.808 1901.08 734.998 1897.2 734.908C1891.3 734.768 1875.13 732.488 1870.02 730.108C1869.05 729.658 1868.38 730.338 1868.74 728.388C1868.88 727.608 1874.77 714.508 1875.26 713.878ZM1871.74 713.368C1858.92 726.138 1850.22 741.118 1831.01 744.608C1827.31 745.278 1808.61 746.868 1806.77 744.848L1829.42 704.968L1871.74 713.358V713.368Z" fill="#F4FFF4"/>
<path d="M1671.46 979.449C1672.49 978.239 1670.44 975.949 1674.78 976.829L1669.29 985.799C1665.76 983.219 1670.15 980.979 1671.46 979.449ZM1597.8 1072.81C1596.73 1071.58 1602.76 1063.85 1603.29 1063.83C1603.47 1063.83 1605.78 1066.14 1605.77 1066.31C1605.75 1066.82 1598.32 1073.41 1597.79 1072.8L1597.8 1072.81ZM1622.31 1045.88C1620.23 1049.37 1616.85 1051.94 1614.25 1054.74C1613.34 1055.72 1608.51 1063.47 1606.8 1061.8L1614.23 1050.76L1623.79 1041.81C1624.34 1043.87 1623.11 1044.54 1622.32 1045.87L1622.31 1045.88ZM1628.79 1035.81C1627.89 1035.02 1633.89 1025.24 1634.79 1032.81C1629.76 1031.69 1633.84 1036.97 1628.79 1035.81ZM1634.79 1029.81C1633.22 1026.6 1643.52 1016.68 1644.78 1017.83C1643.84 1019.13 1636.26 1031.42 1634.79 1029.81ZM1653.52 1009.11C1652.94 1009.81 1650.08 1013.13 1649.3 1012.81L1647.79 1009.84C1650.18 1010.71 1652.58 1003.51 1654.78 1005.83C1656.16 1007.28 1654.08 1008.44 1653.52 1009.11Z" fill="#F4FFF4"/>
<path d="M1890.44 1019.84C1890.9 1019.84 1891.43 1019.79 1891.87 1019.77C1890.65 1019.09 1889.94 1018.11 1889.75 1016.82C1889.51 1017.17 1888.85 1017.52 1888.75 1017.82C1889.65 1018.36 1890.19 1019.06 1890.44 1019.84Z" fill="#F4FFF4"/>
<path d="M1867.68 1036.92C1867.09 1037.01 1866.4 1036.96 1865.76 1036.82C1866.19 1036.92 1866.57 1037.41 1866.76 1037.82C1867.06 1037.47 1867.37 1037.18 1867.68 1036.92Z" fill="#F4FFF4"/>
<path d="M1909.93 1055.56C1907.33 1058.02 1904.94 1059.11 1902.76 1058.82C1903.45 1059.5 1906.45 1063.05 1905.76 1063.81L1900.28 1064.83C1898.01 1061.89 1902.94 1062.09 1901.77 1058.81C1899.48 1059.22 1897.11 1059.75 1894.66 1060.38C1896.42 1066.52 1895.12 1072.39 1888.44 1066.54C1883.88 1067.05 1879.33 1067.47 1874.77 1067.8C1875.48 1068.02 1877.75 1069.95 1877.66 1071.11C1877.39 1074.66 1869.57 1083.77 1869.77 1088.79H1871.77L1880.28 1071.79C1882.69 1071.24 1881.9 1075.03 1881.8 1076.33C1881.49 1080.67 1879.45 1084.42 1879.77 1088.8H1881.77C1884.14 1085.31 1881.59 1071.04 1887.26 1071.8C1888.11 1071.91 1888.82 1086.99 1888.77 1088.8H1890.77C1890.75 1082.76 1891.18 1076.71 1889.77 1070.81L1894.19 1070.79L1896.76 1088.8H1898.76C1899.97 1084.36 1895.51 1073.37 1895.98 1070.26C1896.18 1068.96 1898.07 1068.56 1899.24 1068.8C1900.29 1069.01 1905.17 1086.34 1906.76 1088.8H1908.76C1908.36 1082.02 1903.93 1076.15 1901.95 1070.1C1901.74 1069.46 1899.83 1066.61 1902.26 1066.83C1904.77 1067.05 1914.58 1085.8 1916.76 1088.81H1918.76C1914.95 1082.16 1910.93 1075.59 1907.17 1068.9C1906.68 1068.04 1904.61 1066.75 1906.27 1065.8C1908.54 1066.05 1910.27 1067.76 1911.75 1069.32C1915.13 1072.88 1920.77 1080.95 1923.83 1085.28C1924.72 1086.53 1926.34 1086.98 1924.76 1088.81H1928.76V1085.81C1926.78 1085.78 1925.96 1084.59 1924.78 1083.3C1919.64 1077.66 1914.36 1069.59 1909.76 1063.33C1910.88 1061.87 1913.31 1064.11 1914.25 1064.84C1919.29 1068.71 1923.36 1075.16 1928.76 1078.82V1074.82C1923.05 1070.21 1916.75 1065.69 1912.75 1059.33L1928.76 1067.82V1065.82C1924.41 1062.78 1917.8 1060.75 1914.75 1056.33L1928.76 1060.82V1058.82L1915.76 1052.82C1915.78 1055.17 1913.84 1056.08 1909.93 1055.56Z" fill="#F4FFF4"/>
<path d="M1736.81 856.412L1741.77 850.852C1743.33 848.352 1745.03 844.642 1746.77 841.852C1745.31 842.912 1744.98 842.252 1745.77 839.852C1722.28 877.522 1697.17 914.962 1672.01 951.562C1640.02 998.092 1605.93 1043.12 1572.79 1088.81H1575.79L1580.53 1080.33C1635.08 1007.05 1688 933.012 1736.81 856.412Z" fill="#F4FFF4"/>
<path d="M1912.75 913.838C1912.36 913.188 1912.07 912.738 1911.91 912.438C1911.56 912.938 1911.18 913.408 1910.75 913.838C1911.4 913.908 1912.13 913.738 1912.75 913.838Z" fill="#F4FFF4"/>
<path d="M1869.87 1081.86C1873.82 1076.89 1875.45 1072.2 1874.76 1067.8C1874.08 1070.52 1871.44 1070.68 1870.76 1067.8C1870.67 1068.99 1870.03 1069.84 1869.76 1070.8C1869.44 1071.94 1869.64 1073 1868.99 1074.48C1866.52 1080.15 1859.36 1083.45 1865.76 1088.79H1869.76C1867.53 1087.77 1867.57 1085.46 1869.87 1081.85V1081.86Z" fill="#F4FFF4"/>
<path d="M1912.15 915.668C1912.35 914.868 1912.09 914.308 1910.75 913.828C1911.28 915.328 1911.77 915.968 1912.15 915.668Z" fill="#F4FFF4"/>
<path d="M1867.66 1074.71L1869.76 1070.8L1860.76 1080.8C1861.71 1083.47 1860.43 1084.76 1857.76 1083.8C1859.42 1086.63 1857.66 1088.16 1854.76 1088.8H1865.76C1859.3 1086.99 1859.94 1082.3 1867.66 1074.72V1074.71Z" fill="#F4FFF4"/>
<path d="M1732.56 1087.18L1730.77 1088.81H1735.77L1733.65 1088.17C1732.68 1075.14 1729.8 1071.47 1732.56 1087.18Z" fill="#F4FFF4"/>
<path d="M1725.82 1088.05C1725.42 1076.28 1723.13 1073.18 1724.67 1087.3L1722.78 1088.81H1727.14C1726.61 1088.75 1726.17 1088.51 1725.83 1088.05H1725.82Z" fill="#F4FFF4"/>
<path d="M1915.75 1052.81C1918.31 1053.15 1920.87 1053.56 1923.42 1054.03C1920.87 1053.12 1917.93 1052.77 1915.75 1052.81Z" fill="#F4FFF4"/>
<path d="M1922.83 1037.63C1920.63 1037.81 1918.6 1037.54 1916.75 1036.82C1917.75 1037.92 1920.32 1038.1 1922.83 1037.63Z" fill="#F4FFF4"/>
<path d="M1918.98 1032.57C1921.33 1031.46 1928.38 1028.9 1928.75 1031.8V1026.8C1925.25 1027.68 1921.59 1029.62 1918.75 1031.8C1918.91 1032.11 1918.99 1032.37 1918.98 1032.57Z" fill="#F4FFF4"/>
<path d="M1913.27 912.969L1912.76 913.839C1913.55 913.659 1914.46 913.589 1915.44 913.609C1914.72 913.419 1914 913.209 1913.28 912.969H1913.27Z" fill="#F4FFF4"/>
<path d="M1911.91 912.436C1912.04 912.256 1912.16 912.066 1912.28 911.876C1911.72 911.816 1911.63 911.906 1911.91 912.436Z" fill="#F4FFF4"/>
<path d="M1915.43 913.609C1918.12 914.339 1920.72 914.779 1923.25 914.949C1920.64 914.219 1917.83 913.649 1915.43 913.609Z" fill="#F4FFF4"/>
<path d="M1925.06 1048.36C1922.38 1047.82 1919.02 1048.05 1917.75 1048.81C1920.06 1048.22 1922.5 1048.07 1925.06 1048.36Z" fill="#F4FFF4"/>
<path d="M1919.34 1030.51C1919.65 1030.16 1920.08 1029.8 1920.56 1029.42C1919.93 1029.69 1919.3 1029.94 1918.71 1030.15C1919.1 1030.11 1919.33 1030.21 1919.34 1030.5V1030.51Z" fill="#F4FFF4"/>
<path d="M1916.75 1030.82C1917.34 1030.64 1918 1030.41 1918.7 1030.16C1918.23 1030.21 1917.53 1030.47 1916.75 1030.82Z" fill="#F4FFF4"/>
<path d="M1918.75 1031.82C1919.17 1031.19 1919.34 1030.77 1919.33 1030.51C1918.88 1031.01 1918.64 1031.46 1918.75 1031.82Z" fill="#F4FFF4"/>
<path d="M1781.77 773.861C1781.26 775.511 1781.8 775.761 1781.77 775.861C1783.42 777.001 1784.52 773.231 1781.77 773.861Z" fill="#F4FFF4"/>
<path d="M1730.41 929.696C1732.95 936.296 1736.96 932.966 1740.91 929.166L1743.78 927.836C1739.63 926.436 1738.07 931.556 1735.25 931.866C1725.38 932.956 1740.52 920.746 1741.61 919.206C1743.85 916.056 1746.38 911.806 1745.78 907.836C1742.62 915.966 1737.5 923.256 1730.42 929.696H1730.41Z" fill="#F4FFF4"/>
<path d="M1715.78 1031.82C1716.01 1031.88 1718.04 1033.14 1719.78 1033.82C1720.32 1031.17 1716.92 1029.06 1715.78 1031.82Z" fill="#F4FFF4"/>
<path d="M1713.78 1041.82C1715.15 1043.5 1716.88 1044.02 1718.78 1042.82C1717.15 1041.3 1715.88 1040.84 1713.78 1041.82Z" fill="#F4FFF4"/>
<path d="M1752.36 1034.86C1752.76 1035.07 1752.79 1035.56 1752.76 1036.09C1753 1036.66 1753.25 1037.11 1753.39 1037.23C1754.17 1037.96 1759.48 1037.44 1760.78 1036.81C1760.46 1036.96 1754.03 1037.06 1753.77 1036.81C1753.53 1036.58 1753.92 1033.78 1753.77 1032.81C1752.23 1032.51 1752.08 1033.65 1752.36 1034.85V1034.86Z" fill="#F4FFF4"/>
<path d="M1880.76 850.846C1882.76 853.366 1883.85 853.756 1886.76 854.846C1886.68 852.356 1882.96 849.696 1880.76 850.846Z" fill="#F4FFF4"/>
<path d="M1816.77 897.835C1816.88 897.935 1816.97 898.005 1817.07 898.095C1817.65 898.515 1818.56 898.835 1818.6 898.945C1818.62 899.005 1818.63 899.095 1818.63 899.195C1819.48 899.565 1819.87 899.115 1819.77 897.835C1819.47 897.595 1817.52 898.005 1816.77 897.835Z" fill="#F4FFF4"/>
<path d="M1860.76 1080.81C1860.71 1080.37 1860.64 1079.92 1860.54 1079.46C1860.48 1079.97 1860.54 1080.43 1860.76 1080.81Z" fill="#F4FFF4"/>
<path d="M1817.76 959.828C1820.29 962.818 1821.81 963.808 1819.76 967.828C1825.19 966.678 1821.84 959.968 1817.76 959.828Z" fill="#F4FFF4"/>
<path d="M1743.27 856.849C1744.19 857.609 1747.74 862.959 1747.72 863.359C1747.7 863.999 1739.13 870.359 1737.76 871.339C1737.14 871.789 1736.66 872.399 1736.32 872.689C1736.46 872.809 1736.57 872.939 1736.64 873.079C1738.95 871.119 1746.07 865.869 1747.51 865.109C1748.73 864.479 1749.79 864.359 1750.69 864.629C1747.59 861.929 1743.95 857.599 1743.13 856.209C1743.12 856.189 1743.11 856.149 1743.11 856.109C1742.86 856.509 1742.52 856.879 1742.1 857.179C1742.32 857.349 1742.23 857.939 1741.75 858.849C1741.86 858.579 1743.03 856.759 1743.24 856.859L1743.27 856.849Z" fill="#F4FFF4"/>
<path d="M1735.78 872.362C1735.74 872.042 1735.74 871.562 1735.78 870.852L1735.51 872.242C1735.61 872.282 1735.69 872.322 1735.79 872.372L1735.78 872.362Z" fill="#F4FFF4"/>
<path d="M1743.68 854.08C1745.09 850.18 1748.85 842.05 1750.95 838.18C1750.57 838.42 1750.18 838.65 1749.78 838.85C1747.69 845.03 1745.2 847.17 1742.78 851.85C1743.37 852.51 1743.66 853.29 1743.68 854.08Z" fill="#F4FFF4"/>
<path d="M1753.88 866.772C1753.5 866.642 1753.07 866.412 1752.6 866.102C1752.82 866.432 1753.01 866.802 1753.18 867.212C1753.29 866.942 1753.53 866.802 1753.89 866.772H1753.88Z" fill="#F4FFF4"/>
<path d="M1740.77 857.849C1741.28 857.689 1741.73 857.459 1742.12 857.179C1741.92 857.019 1741.45 857.209 1740.77 857.849Z" fill="#F4FFF4"/>
<path d="M1736.65 873.078C1736.4 873.288 1736.19 873.468 1736.07 873.598L1735.77 875.848C1736.72 874.658 1737.01 873.738 1736.65 873.078Z" fill="#F4FFF4"/>
<path d="M1753.77 869.849C1753.68 868.869 1753.48 867.979 1753.17 867.219C1752.96 867.709 1753.16 868.579 1753.77 869.849Z" fill="#F4FFF4"/>
<path d="M1753.88 866.766C1754.23 866.886 1754.53 866.916 1754.77 866.846C1754.41 866.756 1754.12 866.746 1753.88 866.766Z" fill="#F4FFF4"/>
<path d="M1750.94 838.182C1751.92 837.562 1752.86 836.792 1753.77 835.852C1753.25 835.852 1752.75 835.882 1752.31 836.062C1752.11 836.142 1751.6 836.952 1750.93 838.182H1750.94Z" fill="#F4FFF4"/>
<path d="M1743.13 856.1C1743.52 855.48 1743.7 854.78 1743.68 854.07C1743.31 855.09 1743.11 855.81 1743.13 856.1Z" fill="#F4FFF4"/>
<path d="M1750.7 864.625C1751.37 865.205 1752.01 865.715 1752.6 866.095C1752.1 865.355 1751.46 864.845 1750.7 864.625Z" fill="#F4FFF4"/>
<path d="M1820.76 969.827C1822.45 970.577 1824.12 970.917 1825.76 970.827C1823.29 967.987 1823.03 966.097 1820.76 969.827Z" fill="#F4FFF4"/>
<path d="M1851.69 947.248C1849.91 948.478 1842.55 952.258 1842.19 952.828C1841.36 954.138 1842.87 955.838 1842.76 956.828C1844.45 953.618 1847.6 951.108 1852.2 949.288C1854.31 947.818 1856.47 946.288 1854.76 943.828C1853.94 944.468 1853.26 946.148 1851.69 947.238V947.248Z" fill="#F4FFF4"/>
<path d="M1823.02 960.688C1823.87 960.568 1838.26 954.508 1838.77 953.808C1839.44 952.888 1836.46 949.348 1836.77 947.828C1835.13 948.918 1834.98 950.608 1836.32 952.898L1822.72 958.728C1821.03 957.428 1819.72 957.128 1818.77 957.828C1820.15 959.328 1820.41 961.048 1823.02 960.688Z" fill="#F4FFF4"/>
<path d="M1823.76 962.835C1823.79 965.465 1825.27 969.745 1828.76 968.825L1826.12 964.925C1831.14 961.695 1836.36 959.325 1841.76 957.825C1836.61 953.015 1830.1 963.455 1823.76 962.835Z" fill="#F4FFF4"/>
<path d="M1676.21 1027.63C1676.37 1027.65 1676.56 1027.71 1676.78 1027.82C1676.55 1027.67 1676.36 1027.61 1676.21 1027.63Z" fill="#F4FFF4"/>
<path d="M1676.21 1027.63C1675.5 1027.52 1675.35 1028.24 1675.78 1029.82C1675.63 1028.41 1675.78 1027.69 1676.21 1027.63Z" fill="#F4FFF4"/>
<path d="M1872.76 1000.82C1871.89 1001.37 1871.84 1001.72 1872.76 1001.82C1872.75 1001.5 1872.72 1001.14 1872.76 1000.82Z" fill="#F4FFF4"/>
<path d="M1841.6 948.288C1840.7 945.658 1839.42 944.498 1837.77 944.828C1839.47 945.568 1838.69 951.708 1841.17 950.738C1843.08 949.988 1852.26 944.278 1853.77 942.828L1851.73 942.148L1841.61 948.288H1841.6Z" fill="#F4FFF4"/>
<path d="M1839.96 944.588C1839.7 944.258 1839.6 943.708 1839.76 942.828C1839.13 942.978 1838.43 943.598 1837.76 943.828C1839.08 945.028 1839.8 945.268 1839.96 944.588Z" fill="#F4FFF4"/>
<path d="M1869.76 1031.82C1866.99 1032.08 1866.75 1032.97 1868.76 1034.82C1868.04 1033.3 1868.06 1032.19 1869.76 1031.82Z" fill="#F4FFF4"/>
<path d="M1865.31 1038.14C1865.24 1037.89 1865.37 1037.44 1865.76 1036.82C1863.43 1038.09 1863.29 1038.53 1865.31 1038.14Z" fill="#F4FFF4"/>
<path d="M1866.4 1038.06C1866.52 1037.95 1866.64 1037.85 1866.76 1037.82C1866.19 1037.96 1865.71 1038.07 1865.31 1038.14C1865.39 1038.44 1865.77 1038.44 1866.4 1038.06Z" fill="#F4FFF4"/>
<path d="M1736.33 872.689C1736.18 872.559 1736 872.449 1735.79 872.359C1735.86 872.949 1736.04 872.949 1736.33 872.689Z" fill="#F4FFF4"/>
<path d="M1739.25 868.047C1738.06 869.017 1736.9 869.957 1735.77 870.837C1736.89 870.377 1738.14 869.347 1739.25 868.047Z" fill="#F4FFF4"/>
<path d="M1685.78 959.828C1684.21 961.218 1683.65 960.638 1684.78 958.828C1678.35 970.168 1678.68 970.498 1685.78 959.828Z" fill="#F4FFF4"/>
<path d="M1907.75 1031.82L1906.79 1031.35C1907.05 1031.56 1907.37 1031.72 1907.75 1031.82Z" fill="#F4FFF4"/>
<path d="M1847.77 941.208C1850.48 939.688 1852.91 937.568 1853.76 935.828C1850.5 938.308 1843.65 941.888 1839.76 942.828C1842.14 943.128 1844.81 942.578 1847.77 941.208Z" fill="#F4FFF4"/>
<path d="M1839.76 942.828C1839.98 943.668 1840.04 944.238 1839.96 944.588C1840.67 945.488 1842.58 944.748 1843.79 944.358C1847.27 943.238 1852.6 939.858 1854.76 936.828C1852.27 938.738 1849.95 940.198 1847.77 941.208C1844.92 942.808 1841.75 943.738 1839.76 942.828Z" fill="#F4FFF4"/>
<path d="M1870.76 1017.82C1870.03 1017.73 1868.81 1016.71 1867.76 1016.82C1868 1019.01 1869.41 1019.74 1870.76 1017.82Z" fill="#F4FFF4"/>
<path d="M1898.18 1028.31C1898.33 1028.43 1898.52 1028.59 1898.75 1028.82C1898.59 1028.43 1898.5 1028.03 1898.48 1027.61C1898.39 1027.85 1898.29 1028.09 1898.18 1028.31Z" fill="#F4FFF4"/>
<path d="M1896.76 1023.82C1897.16 1024.06 1897.57 1024.19 1897.99 1024.21C1897.68 1023.99 1897.28 1023.85 1896.76 1023.82Z" fill="#F4FFF4"/>
<path d="M1898.48 1027.61C1898.68 1027.05 1898.8 1026.45 1898.78 1025.9C1898.56 1026.49 1898.46 1027.07 1898.48 1027.61Z" fill="#F4FFF4"/>
<path d="M1889.76 1016.82C1886.3 1011.93 1884.8 1014.7 1888.76 1017.82C1887.36 1016.39 1887.98 1015.82 1889.76 1016.82Z" fill="#F4FFF4"/>
<path d="M1749.77 838.852C1748.74 840.042 1747.74 841.042 1746.77 841.852C1746.78 842.492 1746.64 843.212 1746.4 843.972C1747.52 842.122 1748.72 840.352 1749.77 838.852Z" fill="#F4FFF4"/>
<path d="M1743.05 850.937C1743.3 850.137 1743.6 849.317 1743.98 848.477C1743.44 849.207 1742.87 849.857 1742.31 850.367C1742.95 849.897 1743.21 850.137 1743.04 850.937H1743.05Z" fill="#F4FFF4"/>
<path d="M1741.77 850.845C1741.95 850.705 1742.13 850.545 1742.31 850.375C1742.15 850.495 1741.97 850.635 1741.77 850.845Z" fill="#F4FFF4"/>
<path d="M1742.77 851.847C1742.91 851.487 1742.99 851.197 1743.05 850.938C1742.95 851.238 1742.85 851.547 1742.77 851.847Z" fill="#F4FFF4"/>
<path d="M1743.98 848.479C1745 847.109 1745.91 845.469 1746.4 843.969C1745.5 845.449 1744.66 846.979 1743.98 848.479Z" fill="#F4FFF4"/>
<path d="M1769.77 960.825C1771.19 961.985 1772.52 961.645 1773.77 959.825C1772.45 959.855 1770.46 959.325 1769.77 960.825Z" fill="#F4FFF4"/>
<path d="M1845.93 921.997C1845.32 922.597 1844.89 923.237 1844.76 923.837C1847.42 922.347 1850.63 921.407 1852.76 918.837C1851.89 918.817 1850.76 919.107 1849.62 919.597C1848.68 920.527 1847.3 921.397 1845.93 921.997Z" fill="#F4FFF4"/>
<path d="M1845.93 921.996C1846.88 921.056 1848.25 920.186 1849.62 919.596C1850.2 919.016 1850.62 918.416 1850.76 917.836C1848.06 917.856 1844.9 921.696 1842.76 922.836C1843.65 922.816 1844.79 922.496 1845.93 921.996Z" fill="#F4FFF4"/>
<path d="M1872.62 1061.48C1872.99 1061.12 1873.72 1060.88 1874.76 1060.81C1872.54 1059.23 1871.83 1059.46 1872.62 1061.48Z" fill="#F4FFF4"/>
<path d="M1873.76 1063.81C1873.24 1062.86 1872.86 1062.09 1872.62 1061.48C1872.02 1062.05 1872.34 1062.92 1873.76 1063.81Z" fill="#F4FFF4"/>
<path d="M1880.76 1025.82C1878.9 1023.67 1875.69 1026.5 1875.76 1028.82C1877 1025.55 1878.66 1024.55 1880.76 1025.82Z" fill="#F4FFF4"/>
<path d="M1907.75 1037.82C1907.9 1038.07 1908 1038.29 1908.08 1038.5C1908.2 1038.2 1908.1 1037.97 1907.75 1037.82Z" fill="#F4FFF4"/>
<path d="M1908.08 1038.49C1907.94 1038.83 1907.51 1039.27 1906.75 1039.81C1907.96 1039.83 1908.39 1039.38 1908.08 1038.49Z" fill="#F4FFF4"/>
<path d="M1909.75 1046.82C1911.09 1047.09 1912.4 1047.6 1913.75 1047.82C1913.75 1047.43 1913.83 1047.15 1913.97 1046.96C1913.3 1046.62 1912.56 1046.24 1911.75 1045.82C1911.67 1046.53 1911 1046.86 1909.75 1046.82Z" fill="#F4FFF4"/>
<path d="M1913.97 1046.96C1914.63 1047.29 1915.22 1047.58 1915.75 1047.82C1915.31 1046.75 1914.39 1046.38 1913.97 1046.96Z" fill="#F4FFF4"/>
<path d="M1911.75 1045.82C1911.53 1045.86 1911.36 1045.88 1911.21 1045.91C1911.4 1045.9 1911.57 1045.87 1911.75 1045.82Z" fill="#F4FFF4"/>
<path d="M1902.53 1059.38C1902.55 1059.31 1902.57 1059.24 1902.6 1059.18C1902.57 1059.24 1902.53 1059.3 1902.49 1059.34C1902.5 1059.35 1902.51 1059.37 1902.53 1059.38Z" fill="#F4FFF4"/>
<path d="M1902.5 1059.32C1902.28 1059.07 1902.03 1058.88 1901.76 1058.8C1902.04 1059.4 1902.29 1059.57 1902.5 1059.32Z" fill="#F4FFF4"/>
<path d="M1902.75 1058.8C1902.7 1058.91 1902.65 1059.03 1902.6 1059.16C1902.65 1059.06 1902.7 1058.95 1902.75 1058.8Z" fill="#F4FFF4"/>
<path d="M1891.87 1019.77C1892.17 1019.94 1892.49 1020.09 1892.84 1020.22C1892.82 1020.01 1892.79 1019.87 1892.74 1019.83C1892.66 1019.75 1892.31 1019.75 1891.86 1019.77H1891.87Z" fill="#F4FFF4"/>
<path d="M1890.44 1019.83C1890.18 1019.83 1889.94 1019.83 1889.76 1019.8V1023.7C1890.51 1022.44 1890.83 1021.04 1890.44 1019.82V1019.83Z" fill="#F4FFF4"/>
<path d="M1913.75 1049.82L1908.75 1048.82C1910.48 1050.37 1912.15 1050.7 1913.75 1049.82Z" fill="#F4FFF4"/>
<path d="M1912.46 1048.51C1912.99 1048.45 1913.47 1048.22 1913.76 1047.8C1913.08 1048.03 1912.58 1048.23 1912.26 1048.41C1912.33 1048.44 1912.4 1048.47 1912.47 1048.51H1912.46Z" fill="#F4FFF4"/>
<path d="M1910.53 1048.05C1910.72 1048.05 1910.91 1048.07 1911.1 1048.1C1911.02 1047.77 1910.58 1047.34 1909.75 1046.82C1909.79 1047.34 1910.09 1047.76 1910.52 1048.06L1910.53 1048.05Z" fill="#F4FFF4"/>
<path d="M1912.46 1048.52C1912.33 1048.54 1912.2 1048.54 1912.06 1048.54C1911.41 1048.99 1911.97 1049.33 1913.75 1049.82C1913.59 1049.29 1913.09 1048.84 1912.45 1048.53L1912.46 1048.52Z" fill="#F4FFF4"/>
<path d="M1911.08 1048.34C1910.88 1048.26 1910.69 1048.17 1910.52 1048.05C1909.76 1048.05 1909.08 1048.27 1908.75 1048.81C1910.12 1048.89 1910.93 1048.72 1911.08 1048.34Z" fill="#F4FFF4"/>
<path d="M1911.08 1048.34C1911.39 1048.46 1911.73 1048.53 1912.06 1048.54C1912.11 1048.5 1912.18 1048.46 1912.25 1048.43C1911.89 1048.27 1911.49 1048.16 1911.1 1048.1C1911.12 1048.19 1911.11 1048.27 1911.09 1048.35L1911.08 1048.34Z" fill="#F4FFF4"/>
</g>
<g opacity="0.1">
<path d="M-22.4502 587.987C-8.4002 610.137 7.90981 632.427 32.5498 643.477C29.0498 644.167 24.0498 640.897 20.8698 639.147C2.81981 629.197 -10.4002 614.327 -22.4502 597.977V587.977V587.987Z" fill="#F4FFF4"/>
<path d="M-22.4502 361.018C-14.9702 375.978 -8.4702 391.458 1.5498 404.998C-0.330194 405.438 -0.830194 403.948 -1.9502 403.008C-11.2602 395.198 -16.6602 385.458 -22.4402 375.008V361.008L-22.4502 361.018Z" fill="#F4FFF4"/>
<path d="M1018.42 -13.9331C999.9 30.5569 986.33 77.3669 962.23 119.347C914.71 202.137 831.22 275.267 756.35 333.417C732.91 351.627 706.09 375.037 677.47 382.527C644.93 391.047 583.99 398.847 550.93 396.067C542.44 395.357 547.57 387.327 550.97 383.007C562.6 368.257 571.73 364.547 581.33 345.377C608.51 291.097 612.18 223.677 619.7 164.277C644.54 152.267 672.53 146.707 694.93 130.017C726.85 106.247 754.67 70.3169 785.97 45.0769L843.44 -13.9431H834.44L830.43 -11.4831C790.91 28.7069 751.14 68.5569 711.13 108.067C706.45 113.317 687.64 126.127 681.11 124.647C656.98 119.187 629.35 108.727 606.29 99.3669C569.02 84.2269 533.04 65.4469 500.75 41.3269C479.38 25.3669 463.72 9.12688 445.48 -9.91313C443.8 -11.6631 441.63 -12.8531 439.49 -13.9431H432.49C433.23 -11.5631 434.01 -9.08313 435.58 -7.10313C487.67 58.7169 581.21 105.307 660.23 128.017C665.41 129.507 670.61 130.967 675.92 131.787C678.1 132.127 680.27 131.937 682.41 131.577C675.14 137.207 666.69 141.307 658.02 144.397C559.49 179.607 453.53 106.497 386.97 41.2069L412.89 -12.2531L411.49 -13.9531H406.49C405.2 -13.7331 404.21 -13.2431 403.53 -12.4931L379.85 35.2169C340.78 39.1769 300.6 21.3069 266.15 3.33687C255.15 -3.52313 243.94 -9.28312 232.52 -13.9431H225.52C225.98 -12.9231 226.48 -11.9231 227.1 -11.0031C227.72 -10.0931 228.32 -9.21312 229.12 -8.61312C271.42 22.7769 320.92 40.5969 373.09 46.6569L351.14 83.6969C314.17 80.2069 276.73 76.5969 240.93 67.4169C225.72 63.5169 210.9 57.3869 198.78 47.3169C199.48 27.6869 201.05 8.14688 203.49 -11.3031L202.52 -13.9531H196.52L194.41 -12.9531L187.01 57.9969C145.95 74.6869 101.52 90.1969 57.26 86.4769C50.43 81.0369 44.25 74.6369 38.7 67.2769L36.54 68.0269L36.58 72.5469C60.58 121.497 71.41 189.597 35.2 233.917C17.24 233.557 -0.739962 230.457 -18.76 224.617C-20.13 224.697 -21.36 225.177 -22.46 226.007V231.007L-19.55 233.857C-5.95996 238.327 11.46 241.777 25.44 240.227C28.73 288.007 38.89 341.127 76.14 374.867C80.34 375.827 80.46 376.177 76.5 375.917C46.48 390.617 15.88 404.687 -16.74 412.607L-22.46 415.987V420.987C-21.45 421.327 -20.44 421.637 -19.4 421.797C-9.94996 423.247 19.22 411.917 29.59 407.667C50.91 398.937 72.2 387.767 90.76 374.457C91.22 381.927 97.86 390.687 102.86 396.747C130.07 429.667 176.66 440.657 213.3 418.417C209.88 439.077 204.94 459.267 198.47 478.987C193.76 495.897 163.99 495.477 150.01 495.207C92.67 494.117 49.69 459.097 19.84 414.727C15.89 414.407 16.08 415.377 16.87 418.897C18.38 425.637 26.4 437.427 30.74 443.267C66.66 491.667 130.33 510.557 188.73 501.897C181.69 517.667 173.58 532.727 165.26 547.817C162.19 553.387 151.91 566.627 145.97 568.207C126.66 573.347 90.72 569.837 71.69 563.657C31.38 550.557 2.09004 517.387 -18.62 481.657L-22.46 478.987V488.987L-20.73 495.167C11.14 545.947 59.94 583.607 122.79 577.967C124.52 577.337 146 574.007 144.59 577.347C127.71 590.217 113.09 607.037 99.15 624.047C85.78 637.807 71.42 649.507 51.44 646.447C47.1 645.307 34.88 644.297 40.94 650.047L55.68 653.027C32.87 671.607 6.16004 684.237 -20.43 696.647L-22.46 698.967V704.967C63.57 667.817 138.41 608.297 185.69 526.657C192.24 515.347 197.53 503.347 204.17 492.087C295.43 524.967 390.98 478.307 442.9 401.917C444.87 399.017 450.95 386.747 453.2 386.137L539.99 399.987C594.07 398.627 666.76 402.087 713.36 371.417C747.53 348.927 786.35 318.267 817.45 291.537C891.32 228.057 953.75 165.157 992.88 74.0169L1026.41 -13.9431H1018.41L1018.42 -13.9331ZM429.02 91.0269C434.26 95.5069 442.32 100.987 448.18 104.867C493.4 134.797 547.43 153.567 600.47 164.057C592.8 169.577 582.61 173.217 573.72 176.797C552.29 185.427 530.05 191.967 508.72 200.877C507.57 201.277 506.56 200.957 505.46 200.627C502.01 199.587 485.43 186.967 481.17 183.867C436.52 151.407 396.68 111.007 384.5 55.0669C403.91 57.0069 415.18 79.1769 429.02 91.0269ZM374.68 54.7369C375.56 53.8569 375.55 52.5569 377.49 53.0669C389.18 103.087 421.64 141.807 460.02 174.027C470.05 182.447 485.31 191.557 493.97 200.067C494.94 201.017 495.87 201.357 495.49 203.037C467.44 217.847 435.78 222.137 405.91 232.007C402.74 232.137 397.1 226.847 394.49 224.557C352.6 187.747 331.75 97.4069 374.68 54.7469V54.7369ZM131.26 327.787C91.41 322.857 89.19 277.497 84.54 246.037C110.97 245.177 138.55 252.317 157.04 272.017C158.53 273.607 164.99 281.357 165.35 282.797C166.4 287.037 158.6 296.997 156.53 301.017C157.81 302.087 160.72 297.767 162.88 298.187C163.56 298.317 171.35 304.277 174.54 305.517C187.5 310.547 202.96 309.477 216.52 308.027C215.27 326.037 219.3 343.557 220.58 361.417C197.97 370.637 157.18 367.397 144.51 343.547C139.42 333.977 139.75 327.007 143.52 317.027C140.24 318.467 134.08 327.737 131.26 327.787ZM105.54 162.047L113.52 166.037L108.54 157.047C118.48 156.217 128.98 154.027 138.53 151.047C151.49 146.997 165.32 140.167 175.18 130.697C176.5 129.427 182.99 119.897 184.52 121.047C187.55 123.337 186.12 141.927 186.55 146.527C186.86 149.917 189.85 156.817 188.63 158.577C187.61 160.047 181.96 163.797 180.06 165.067C162.59 176.757 138.23 184.337 119.54 171.037C121.52 174.267 123.81 177.127 125.71 180.367C136.71 199.127 139.61 223.947 128.04 243.027H91.54C101.95 217.357 107 189.867 105.54 162.047ZM299.33 162.727C301.28 169.037 301.49 180.247 302.68 187.377C305.98 207.257 309.15 227.457 318.54 245.497C318.59 246.777 311.85 247.337 310.51 247.047C309.09 250.997 316.81 247.367 315.5 250.527C313.75 254.727 294.06 268.567 289.1 275.127C284.16 281.657 282.46 289.027 281.5 297.037C242.71 280.037 265.88 246.737 299.5 248.037L287.17 242.877C270 231.427 268 204.677 274.74 186.787C276.29 182.667 279.02 179.157 280.49 175.047C279.89 174.367 269.41 184.407 267.77 184.877C265.82 185.437 252.3 183.367 249.3 182.747C228.64 178.497 212.24 166.677 193.51 158.047V117.057C223.6 139.817 260.98 151.597 298.5 154.067L290.5 165.047C291.86 166.257 298.06 158.637 299.32 162.737L299.33 162.727ZM254.51 269.037C253.06 270.467 244.47 265.537 242.6 264.457C234.19 259.617 226.3 252.797 217.5 247.517C216.23 246.757 214.97 247.717 215.53 245.037C233.16 243.607 249.91 250.317 267.52 250.037C261.28 256.847 252.08 257.017 254.52 269.027L254.51 269.037ZM136.53 190.047C137.21 189.307 142.07 193.327 143 194.067C159.3 207.097 173.88 222.427 192.5 232.537C176.78 245.187 152.58 241.107 133.53 242.027C141.77 225.697 140.36 207.427 136.53 190.047ZM195.52 243.047C188.38 250.857 179.57 278.867 167.84 279.907C165.98 280.067 161.23 270.037 159.36 267.707C153.26 260.107 143.99 255.647 136.54 249.537C155.41 243.237 176.04 246.177 195.53 243.057L195.52 243.047ZM201.51 244.037C207.17 262.387 212.14 281.067 213.57 300.357C199.48 308.567 178.86 307.917 169.96 292.997L201.52 244.037H201.51ZM259.02 191.047C254.42 197.047 244.5 205.577 238.41 210.437C227.82 218.887 216.02 225.787 204.03 232.047L193.53 168.057C206.78 167.697 218.05 177.247 229.85 182.227C232.7 183.427 243.91 188.057 246.02 188.057H260.52C260.96 189.807 259.8 190.057 259.03 191.067L259.02 191.047ZM262.51 196.047C266.93 209.407 263.15 233.347 278.51 239.047C274.43 244.917 266.54 245.357 259.97 245.067C244.06 244.377 227.89 237.047 211.53 239.027C210.59 238.227 216.58 231.397 217.5 230.507C229.9 218.427 245.88 211.397 259.7 197.717C260.58 196.847 260.54 195.527 262.51 196.037V196.047ZM212.23 260.817C211 256.507 209.41 253.027 207.52 249.037C224.91 249.507 233.54 270.677 250.5 273.037C250.05 274.597 246.49 275.567 245.04 276.057C235.77 279.197 225.25 279.107 220.01 288.997C214.35 280.837 214.89 270.137 212.23 260.807V260.817ZM199.51 232.037C178.93 220.187 161.58 203.807 143.55 188.547L190.52 165.057C190.79 187.627 196.01 209.827 199.51 232.047V232.037ZM220.53 314.517C220.27 310.607 219.83 297.767 220.72 294.737C221.47 292.197 229.62 286.597 232.2 285.227C264.47 268.087 286.19 307.077 275.99 335.017C268.11 356.587 245.61 363.087 224.5 362.027C226.58 345.817 221.57 330.137 220.52 314.517H220.53ZM224.52 393.517V366.017C230.41 365.517 237.26 366.697 243.02 366.017C271.32 362.657 283.12 336.437 285.53 311.027C304.9 318.517 318.29 338.097 339.51 341.027C321.2 384.837 268.08 411.987 221.53 403.007C221.12 402.607 224.53 395.097 224.53 393.517H224.52ZM288.95 304.027C288.46 268.277 314.04 253.097 345.47 246.507C358.9 243.687 376.6 241.267 390.29 240.337C392.38 240.197 396.73 239.127 398.04 240.997C400.8 244.917 400.09 266.727 399.23 272.267C395.82 294.077 382.96 313.367 366.52 327.547C363.35 330.277 350.8 339.897 347.53 340.597C338.84 342.457 297.14 311.487 288.96 304.037L288.95 304.027ZM200 56.0669C201.56 56.0369 222.92 68.6469 227.54 70.5369C263.72 85.3369 303.85 86.7869 342.51 86.0469C342.69 90.8369 341.74 95.9169 340.45 100.497C339.1 105.317 336.44 109.507 334.52 114.047L340.5 111.057C346.06 146.537 357.58 184.947 378.69 214.357C382.74 219.997 389.11 225.597 392.52 230.527C393.1 231.377 393.91 231.517 393.5 233.037C370.51 238.987 347.04 243.137 323.18 243.087C305.92 215.167 302.97 179.747 313.77 148.807C315.9 142.697 319.2 137.077 321.5 131.057L302.06 150.637C263.86 146.247 226.01 134.457 194.02 113.067L192.54 74.5669C193.07 70.5769 194.76 56.1669 200 56.0769V56.0669ZM59.04 204.037C66.7 175.777 66.46 142.587 60.54 114.057C67.46 113.827 72.02 119.947 77.53 123.047C73.65 112.637 65.99 104.067 58.54 96.0569C103.95 93.6069 148.15 81.7069 190.52 66.0569C194.22 92.7069 183.89 117.407 163.54 134.557C147.08 148.427 120.77 156.287 100.21 147.867L88.54 139.047C101.36 164.677 103.93 198.687 93.56 225.557C92.41 228.537 86.9 240.477 85.03 242.017C81.41 245.017 62.66 239.557 57.02 239.047C52.02 238.597 46.59 239.347 41.54 239.017C50.08 228.547 55.5 217.067 59.04 204.027V204.037ZM196.06 419.047C163.96 430.227 124.55 414.917 104.12 388.927C102.29 386.597 94.92 374.627 94.91 372.517C94.87 362.327 124.89 348.107 128.53 338.027C113.34 340.867 105.08 358.327 91.22 365.197C79.5 371.007 75.2 365.487 67.57 356.487C42.64 327.077 38.18 279.597 30.54 243.037C47.37 241.397 63.71 249.567 80.49 246.057C84.05 269.927 83.6 296.757 99.56 316.507C108.51 327.587 112.76 326.147 124.51 330.547C135.28 334.577 143.16 348.397 152.06 355.997C172.3 373.287 195.15 375.207 220.52 369.027C221.3 377.427 217.45 385.337 216.54 393.537C216.13 397.287 217.18 402.077 216.51 405.497C215.69 409.657 200.4 417.547 196.07 419.047H196.06ZM423.89 418.907C372.39 483.187 283.32 516.187 203.52 487.967C208.69 461.887 220.47 436.957 220.51 410.007C270.34 414.407 317.68 388.697 346.15 348.947C378.58 361.757 410.38 377.037 444.49 385.027C446.84 387.427 426.8 415.277 423.88 418.917L423.89 418.907ZM461.01 375.047C458.42 377.467 453.49 382.167 450.28 381.837C440.77 380.837 420.85 373.417 410.97 370.047C391.99 363.567 373.64 354.807 354.5 349.027C354.09 347.517 354.89 347.367 355.48 346.517C359.97 340.047 367.78 334.007 373.01 328.047C396.15 301.637 413.69 272.927 404.48 236.057C435.86 229.787 466.98 221.527 496.46 209.047C512.55 260.477 501.58 337.037 461.01 375.057V375.047ZM532.77 392.807C519.77 392.697 506.08 391.917 493.28 389.727C489.07 389.007 468.74 384.427 466.48 382.537C462.52 379.227 467.46 371.057 470.1 368.127C477.79 359.617 484.41 356.717 490.37 345.407C510.92 306.417 513.4 251.407 503.91 209.037L612.47 168.057C607.51 246.617 599.44 340.997 532.78 392.817L532.77 392.807Z" fill="#F4FFF4"/>
<path d="M19.57 44.5403C22.19 47.3703 26.24 52.0603 28.54 55.0703L16.55 31.0803C66.36 27.5903 113.67 8.64031 157.53 -13.9197H140.53C126.48 -6.49969 112.37 1.35031 97.89 7.94031C75.76 18.0103 43.08 31.7803 18.74 25.3803C-1.50996 20.0403 -0.459961 0.230312 -11.45 -13.9297H-14.45C-7.30996 -0.549687 -2.35996 13.8603 0.230038 28.8803C7.86004 73.1603 2.13004 126.48 -14.97 168.03C-16.96 172.88 -18.89 178.14 -22.46 182.04V197.04C8.33004 150.66 2.75004 89.3903 9.55004 36.0703C10.62 34.9403 18.44 43.3103 19.57 44.5403Z" fill="#F4FFF4"/>
<path d="M132.29 155.297C126.88 157.187 121.61 159.587 115.96 160.987C115.76 161.287 116.65 167.187 116.99 168.117C117.68 170.057 119.12 170.377 119.53 171.047C119.29 168.507 118.8 165.767 118.09 162.807L132.9 157.207C137.25 157.307 142.42 155.367 138.53 151.047C137.53 157.207 135.97 154.017 132.3 155.297H132.29Z" fill="#F4FFF4"/>
<path d="M155.53 303.038C153.9 301.528 145.71 312.088 146.54 313.028C150.41 310.588 152.83 306.588 155.53 303.038Z" fill="#F4FFF4"/>
</g>
</g>
<defs>
<linearGradient id="paint0_linear_2440_3713" x1="940.11" y1="-40.3782" x2="1046.36" y2="2157.95" gradientUnits="userSpaceOnUse">
<stop stop-color="#EE9876"/>
<stop offset="1" stop-color="#190D1C"/>
</linearGradient>
<clipPath id="clip0_2440_3713">
<rect width="1920" height="1080" fill="white"/>
</clipPath>
</defs>
</svg>
